/* XPM */
static char *result[] = {
/* columns rows colors chars-per-pixel */
"64 64 4 1 ",
"  c #113A64",
". c #046F9D",
"X c #3D8AAB",
"o c #B6B6B6",
/* pixels */
"................        XXooXX        ....  ........XX..........",
"................        XXooXX        ....  ........XX..........",
"................        XXXX            ..  ..      XX    ......",
"................        XXXX            ..  ..      XX    ......",
"XXXX..........    ..    XXooXXXXXXXXXX  ..        XXXXXXXX  XXXX",
"XXXX..........    ..    XXooXXXXXXXXXX  ..        XXXXXXXX  XXXX",
"..XXXXXXXXXX    ......XXXXooXXXX      XXXXXXXX  XXooooXXXXXXXX..",
"..XXXXXXXXXX    ......XXXXooXXXX      XXXXXXXX  XXooooXXXXXXXX..",
"          XX......XXXXXXooXXXXXX......      XXXXXXXXooXX        ",
"          XX......XXXXXXooXXXXXX......      XXXXXXXXooXX        ",
"..........XXXXXXXXXXXXXXXXXX........    ..    XXXXXXooXX        ",
"..........XXXXXXXXXXXXXXXXXX........    ..    XXXXXXooXX        ",
"......................  XXXX        ............  XXXXXX    ....",
"......................  XXXX        ............  XXXXXX    ....",
"....................      XXooXX        ........  XXooXX    ....",
"....................      XXooXX        ........  XXooXX    ....",
"..ooXXXXXX..........      XXooXX          ......XXXXXXXX  ......",
"..ooXXXXXX..........      XXooXX          ......XXXXXXXX  ......",
"..XX....XXXX......      XXXXooXXXX    ..  ..XXXXXXooXX..  ......",
"..XX....XXXX......      XXXXooXXXX    ..  ..XXXXXXooXX..  ......",
"  XX    ..XX......      XXXXXXooXXXXXXXXXXXXXXXXXXXX  ..    ....",
"  XX    ..XX......      XXXXXXooXXXXXXXXXXXXXXXXXXXX  ..    ....",
"  XXXX  XX..........  XXXXXXXXXXXX........    ............      ",
"  XXXX  XX..........  XXXXXXXXXXXX........    ............      ",
"....XXXXXX........XXooXXXX  XX..XXXXXX......  ............XXXX..",
"....XXXXXX........XXooXXXX  XX..XXXXXX......  ............XXXX..",
"........        XXXXXXXX  ..........XXXXXX            XXXX..XX..",
"........        XXXXXXXX  ..........XXXXXX            XXXX..XX..",
"..............XXXXXXXXXX  ..........    XXXX        XX  ....XXXX",
"..............XXXXXXXXXX  ..........    XXXX        XX  ....XXXX",
"............XXXXooXX      ..........      XXXX      XXXX....XX..",
"............XXXXooXX      ..........      XXXX      XXXX....XX..",
"............XXXX........    ........    XX  XX      XXXX  ..XX..",
"............XXXX........    ........    XX  XX      XXXX  ..XX..",
"........    XXXX    ....      ......    XXXXXXXX    XXooXXXXXX..",
"........    XXXX    ....      ......    XXXXXXXX    XXooXXXXXX..",
"......    XXXXXX          ..........  XXXXooXXXX      XXXX..XX..",
"......    XXXXXX          ..........  XXXXooXXXX      XXXX..XX..",
"....      XXXXXX        ............    XXXXXXXX          ......",
"....      XXXXXX        ............    XXXXXXXX          ......",
"XX..      XXooXXoo        ....        XXXXXX              ....XX",
"XX..      XXooXXoo        ....        XXXXXX              ....XX",
"XXoo    XXXXooXXXXXXXXXX      ......XXXX                    ..oo",
"XXoo    XXXXooXXXXXXXXXX      ......XXXX                    ..oo",
"XXXXXXXXXXooXXXXXXXXXX  XXXX......XXXX      XXXX            XXXX",
"XXXXXXXXXXooXXXXXXXXXX  XXXX......XXXX      XXXX            XXXX",
"....XXooooXX        XXXXXXXX..XXXXXX      XXooooXX      ..XXXX..",
"....XXooooXX        XXXXXXXX..XXXXXX      XXooooXX      ..XXXX..",
"    XXXXooXX        ....  XXXXXX..      XXXXXXXXXX    ..XXXX..  ",
"    XXXXooXX        ....  XXXXXX..      XXXXXXXXXX    ..XXXX..  ",
"....  XXXXXX          ..  ..........    XX      XX......XX......",
"....  XXXXXX          ..  ..........    XX      XX......XX......",
"....    XXXX              ..............XX  ....XXXX..XX........",
"....    XXXX              ..............XX  ....XXXX..XX........",
"....    XXooXX........              ....XXXXXXXXXX....XX........",
"....    XXooXX........              ....XXXXXXXXXX....XX........",
"......  XXXXXX......    ..........        XXXX........XX........",
"......  XXXXXX......    ..........        XXXX........XX........",
"..........XXXXXXXXXXXXXXXX        ......  ..........XX..........",
"..........XXXXXXXXXXXXXXXX        ......  ..........XX..........",
"................        ooXX          ..    ........XX..........",
"................        ooXX          ..    ........XX..........",
"............            ooXXXX        ....  ........XX..........",
"............            ooXXXX        ....  ........XX.........."
};
