/* XPM */
static char *result[] = {
/* columns rows colors chars-per-pixel */
"32 32 4 1 ",
"  c #113A64",
". c #046F9D",
"X c #3D8AAB",
"o c #B6B6B6",
/* pixels */
"........    XoX    .. ....X.....",
"........    XX      . .   X  ...",
"XX.....  .  XoXXXXX .    XXXX XX",
".XXXXX  ...XXoXX   XXXX XooXXXX.",
"     X...XXXoXXX...   XXXXoX    ",
".....XXXXXXXXX....  .  XXXoX    ",
"........... XX    ...... XXX  ..",
"..........   XoX    .... XoX  ..",
".oXXX.....   XoX     ...XXXX ...",
".X..XX...   XXoXX  . .XXXoX. ...",
" X  .X...   XXXoXXXXXXXXXX .  ..",
" XX X..... XXXXXX....  ......   ",
"..XXX....XoXX X.XXX... ......XX.",
"....    XXXX .....XXX      XX.X.",
".......XXXXX .....  XX    X ..XX",
"......XXoX   .....   XX   XX..X.",
"......XX....  ....  X X   XX .X.",
"....  XX  ..   ...  XXXX  XoXXX.",
"...  XXX     ..... XXoXX   XX.X.",
"..   XXX    ......  XXXX     ...",
"X.   XoXo    ..    XXX       ..X",
"Xo  XXoXXXXX   ...XX          .o",
"XXXXXoXXXXX XX...XX   XX      XX",
"..XooX    XXXX.XXX   XooX   .XX.",
"  XXoX    .. XXX.   XXXXX  .XX. ",
".. XXX     . .....  X   X...X...",
"..  XX       .......X ..XX.X....",
"..  XoX....       ..XXXXX..X....",
"... XXX...  .....    XX....X....",
".....XXXXXXXX    ... .....X.....",
"........    oX     .  ....X.....",
"......      oXX    .. ....X....."
};
