/* XPM */
static char *_400600852ca4925a788c9a0bb2615bf1GEfvkJDf0gZkwKX[] = {
/* columns rows colors chars-per-pixel */
"64 64 17 1 ",
"  c None",
". c black",
"X c #3E2731",
"o c #5A3A48",
"O c #68386C",
"+ c #3A4466",
"@ c #63C74D",
"# c #D19D7A",
"$ c #124E89",
"% c #4C19CF",
"& c #7950DF",
"* c #A83581",
"= c #E46FBD",
"- c #0099DB",
"; c #8B9BB4",
": c #E8B796",
"> c white",
/* pixels */
"                                                                ",
"                                                                ",
"                                                                ",
"                                                                ",
"                        ............                            ",
"                        ............                            ",
"                      ..ooooooooXXXX....                        ",
"                      ..ooooooooXXXX....                        ",
"                      ..ooooooooXXXXXXXX..                      ",
"                      ..ooooooooXXXXXXXX..                      ",
"                      ..ooooooooXXXXXXXX..                      ",
"                      ..ooooooooXXXXXXXX..                      ",
"                      ..::::::::XXXXXXXXXX..                    ",
"                      ..::::::::XXXXXXXXXX..                    ",
"                    ..::::::::::##XXXXXXXX..                    ",
"                    ..::::::::::##XXXXXXXX..                    ",
"                    ....::::::....##XXXXXX..                    ",
"                    ....::::::....##XXXXXX..                    ",
"                  ....>>........>>..##XXXX..                    ",
"                  ....>>........>>..##XXXX..                    ",
"                  ........::........##XXXX..                    ",
"                  ........::........##XXXX..                    ",
"                    ....::::::....##XX....                      ",
"                    ....::::::....##XX....                      ",
"                    ..::oooooo::##XXXX..                        ",
"                    ..::oooooo::##XXXX..                        ",
"                    ..ooooooooooXXXXXX..                        ",
"                    ..ooooooooooXXXXXX..                        ",
"                    ..ooooooooooXXXXXX..                        ",
"                    ..ooooooooooXXXXXX..                        ",
"                    ..ooooooooooXXXX....                        ",
"                    ..ooooooooooXXXX....                        ",
"                    ..XXooooooooXX..%%%%..                      ",
"                    ..XXooooooooXX..%%%%..                      ",
"                      ............%%%%%%%%..                    ",
"                      ............%%%%%%%%..                    ",
"                    ..%%..&&&&&&&&%%..%%%%%%..                  ",
"                    ..%%..&&&&&&&&%%..%%%%%%..                  ",
"                    ..##..&&&&&&&&%%%%..::::..                  ",
"                    ..##..&&&&&&&&%%%%..::::..                  ",
"                    ..##..OO;;;;OOXXXX..##::..                  ",
"                    ..##..OO;;;;OOXXXX..##::..                  ",
"                      ....--------$$$$......                    ",
"                      ....--------$$$$......                    ",
"                        ..--..----$$$$..                        ",
"                        ..--..----$$$$..                        ",
"                        ..--$$..--$$$$..                        ",
"                        ..--$$..--$$$$..                        ",
"            ..............--$$....$$$$..............            ",
"            ..............--$$....$$$$..............            ",
"          ..======@@======..$$..==..$$..@@==========..          ",
"          ..======@@======..$$..==..$$..@@==========..          ",
"          ..==******@@**@@>>....@@>>....@@@@******==..          ",
"          ..==******@@**@@>>....@@>>....@@@@******==..          ",
"          ..==========@@>>====@@>>====@@@@==========..          ",
"          ..==========@@>>====@@>>====@@@@==========..          ",
"            ........................................            ",
"            ........................................            ",
"                                                                ",
"                                                                ",
"            ;;;;;;++++++++++++++++++++++++++++;;;;;;            ",
"            ;;;;;;++++++++++++++++++++++++++++;;;;;;            ",
"                                                                ",
"                                                                "
};
