/* XPM */
static char *_2Logo_3_641673254001[] = {
/* columns rows colors chars-per-pixel */
"64 64 6 1 ",
"  c None",
". c black",
"X c #5A6988",
"o c #8B9BB4",
"O c #C0CBDC",
"+ c white",
/* pixels */
"                                                                ",
"                                                                ",
"                                                                ",
"                                                                ",
"                                                                ",
"                                                                ",
"                                                                ",
"                                                                ",
"                                                                ",
"                                                                ",
"                                                                ",
"                                                                ",
"                      ++++++++++++  ++++++++++++++++++++++++    ",
"                      ++++++++++++  ++++++++++++++++++++++++    ",
"                    ++..........++  ++....................++    ",
"                    ++..........++  ++....................++    ",
"                  ++..........++    ++........++..........++    ",
"                  ++..........++    ++........++..........++    ",
"                ++..........++      ++......++++..........++    ",
"                ++..........++      ++......++++..........++    ",
"              ++..........++        ++....++  ++..........++    ",
"              ++..........++        ++....++  ++..........++    ",
"            ++..........++          ++..++    ++..........++    ",
"            ++..........++          ++..++    ++..........++    ",
"          ++..........++            ++++    ++..........++      ",
"          ++..........++            ++++    ++..........++      ",
"        ++..........++                    ++..........++        ",
"        ++..........++                    ++..........++        ",
"      ++..........++                    ++..........++          ",
"      ++..........++                    ++..........++          ",
"    ++..........++++++++++++++++++    ++..........++    ++++    ",
"    ++..........++++++++++++++++++    ++..........++    ++++    ",
"    ++..........................++  ++..........++    ++..++    ",
"    ++..........................++  ++..........++    ++..++    ",
"    ++..........................++  ++..........++  ++....++    ",
"    ++..........................++  ++..........++  ++....++    ",
"    ++..........................++  ++..........++++......++    ",
"    ++..........................++  ++..........++++......++    ",
"    ++..........................++  ++..........++........++    ",
"    ++..........................++  ++..........++........++    ",
"    ++..........................++  ++....................++    ",
"    ++..........................++  ++....................++    ",
"    ++++++++++++++++++..........++  ++++++++++++++++++++++++    ",
"    ++++++++++++++++++..........++  ++++++++++++++++++++++++    ",
"                    ++..........++                              ",
"                    ++..........++                              ",
"                    ++..........++                              ",
"                    ++..........++                              ",
"                    ++..........++                              ",
"                    ++..........++                              ",
"                    ++..........++                              ",
"                    ++..........++                              ",
"                    ++++++++++++++                              ",
"                    ++++++++++++++                              ",
"                                                                ",
"                                                                ",
"                                                                ",
"                                                                ",
"        OOOOOOooooooooooXXXXXXooooooooooOOOOOOOOOOOOOOOO        ",
"        OOOOOOooooooooooXXXXXXooooooooooOOOOOOOOOOOOOOOO        ",
"                                                                ",
"                                                                ",
"                                                                ",
"                                                                "
};
