/* XPM */
static char *result[] = {
/* columns rows colors chars-per-pixel */
"64 64 5 1 ",
"  c black",
". c #8B9BB4",
"X c #C0CBDC",
"o c white",
"O c None",
/* pixels */
"OOOOOOOOOOOOOOOOOOOOOOOOOOOOOOOOOOOOOOOOOOOOOOOOOOOOOOOOOOOOOOOO",
"OOOOOOOOOOOOOOOOOOOOOOOOOOOOOOOOOOOOOOOOOOOOOOOOOOOOOOOOOOOOOOOO",
"OOOOOOOOOOOOOOOOOOOOOOOOOOOOOOOOOOOOOOOOOOOOOOOOOOOOOOOOOOOOOOOO",
"OOOOOOOOOOOOOOOOOOOOOOOOOOOOOOOOOOOOOOOOOOOOOOOOOOOOOOOOOOOOOOOO",
"OOOOOOOOOOOOOOOOOOOOOOOOOOOOOOOOOOOOOOOOOOOOOOOOOOOOOOOOOOOOOOOO",
"OOOOOOOOOOOOOOOOOOOOOOOOOOOOOOOOOOOOOOOOOOOOOOOOOOOOOOOOOOOOOOOO",
"OOOOOOOOOOOOOOOOOOOOOOOOOOOOOOOOOOOOOOOOOOOOOOOOOOOOOOOOOOOOOOOO",
"OOOOOOOOOOOOOOOOOOOOOOOOOOOOOOOOOOOOOOOOOOOOOOOOOOOOOOOOOOOOOOOO",
"OOOOOOOOOOOOOOOOOOOOOOOOOOOOOOOOOOOOOOOOOOOOOOOOOOOOOOOOOOOOOOOO",
"OOOOOOOOOOOOOOOOOOOOOOOOOOOOOOOOOOOOOOOOOOOOOOOOOOOOOOOOOOOOOOOO",
"OOOOOOOOOOOOOOOOOOOOOOooooooooooooOOooooooooooooooooooooooooOOOO",
"OOOOOOOOOOOOOOOOOOOOOOooooooooooooOOooooooooooooooooooooooooOOOO",
"OOOOOOOOOOOOOOOOOOOOoo          ooOOoo                    ooOOOO",
"OOOOOOOOOOOOOOOOOOOOoo          ooOOoo                    ooOOOO",
"OOOOOOOOOOOOOOOOOOoo          ooOOOOoo        oo          ooOOOO",
"OOOOOOOOOOOOOOOOOOoo          ooOOOOoo        oo          ooOOOO",
"OOOOOOOOOOOOOOOOoo          ooOOOOOOoo      oooo          ooOOOO",
"OOOOOOOOOOOOOOOOoo          ooOOOOOOoo      oooo          ooOOOO",
"OOOOOOOOOOOOOOoo          ooOOOOOOOOoo    ooOOoo          ooOOOO",
"OOOOOOOOOOOOOOoo          ooOOOOOOOOoo    ooOOoo          ooOOOO",
"OOOOOOOOOOOOoo          ooOOOOOOOOOOoo  ooOOOOoo          ooOOOO",
"OOOOOOOOOOOOoo          ooOOOOOOOOOOoo  ooOOOOoo          ooOOOO",
"OOOOOOOOOOoo          ooOOOOOOOOOOOOooooOOOOoo          ooOOOOOO",
"OOOOOOOOOOoo          ooOOOOOOOOOOOOooooOOOOoo          ooOOOOOO",
"OOOOOOOOoo          ooOOOOOOOOOOOOOOOOOOOOoo          ooOOOOOOOO",
"OOOOOOOOoo          ooOOOOOOOOOOOOOOOOOOOOoo          ooOOOOOOOO",
"OOOOOOoo          ooOOOOOOOOOOOOOOOOOOOOoo          ooOOOOOOOOOO",
"OOOOOOoo          ooOOOOOOOOOOOOOOOOOOOOoo          ooOOOOOOOOOO",
"OOOOoo          ooooooooooooooooooOOOOoo          ooOOOOooooOOOO",
"OOOOoo          ooooooooooooooooooOOOOoo          ooOOOOooooOOOO",
"OOOOoo                          ooOOoo          ooOOOOoo  ooOOOO",
"OOOOoo                          ooOOoo          ooOOOOoo  ooOOOO",
"OOOOoo                          ooOOoo          ooOOoo    ooOOOO",
"OOOOoo                          ooOOoo          ooOOoo    ooOOOO",
"OOOOoo                          ooOOoo          oooo      ooOOOO",
"OOOOoo                          ooOOoo          oooo      ooOOOO",
"OOOOoo                          ooOOoo          oo        ooOOOO",
"OOOOoo                          ooOOoo          oo        ooOOOO",
"OOOOoo                          ooOOoo                    ooOOOO",
"OOOOoo                          ooOOoo                    ooOOOO",
"OOOOoooooooooooooooooo          ooOOooooooooooooooooooooooooOOOO",
"OOOOoooooooooooooooooo          ooOOooooooooooooooooooooooooOOOO",
"OOOOOOOOOOOOOOOOOOOOoo          ooOOOOOOOOOOOOOOOOOOOOOOOOOOOOOO",
"OOOOOOOOOOOOOOOOOOOOoo          ooOOOOOOOOOOOOOOOOOOOOOOOOOOOOOO",
"OOOOOOOOOOOOOOOOOOOOoo          ooOOOOOOOOOOOOOOOOOOOOOOOOOOOOOO",
"OOOOOOOOOOOOOOOOOOOOoo          ooOOOOOOOOOOOOOOOOOOOOOOOOOOOOOO",
"OOOOOOOOOOOOOOOOOOOOoo          ooOOOOOOOOOOOOOOOOOOOOOOOOOOOOOO",
"OOOOOOOOOOOOOOOOOOOOoo          ooOOOOOOOOOOOOOOOOOOOOOOOOOOOOOO",
"OOOOOOOOOOOOOOOOOOOOoo          ooOOOOOOOOOOOOOOOOOOOOOOOOOOOOOO",
"OOOOOOOOOOOOOOOOOOOOoo          ooOOOOOOOOOOOOOOOOOOOOOOOOOOOOOO",
"OOOOOOOOOOOOOOOOOOOOooooooooooooooOOOOOOOOOOOOOOOOOOOOOOOOOOOOOO",
"OOOOOOOOOOOOOOOOOOOOooooooooooooooOOOOOOOOOOOOOOOOOOOOOOOOOOOOOO",
"OOOOOOOOOOOOOOOOOOOOOOOOOOOOOOOOOOOOOOOOOOOOOOOOOOOOOOOOOOOOOOOO",
"OOOOOOOOOOOOOOOOOOOOOOOOOOOOOOOOOOOOOOOOOOOOOOOOOOOOOOOOOOOOOOOO",
"OOOOOOOOOOOOOOOOOOOOOOOOOOOOOOOOOOOOOOOOOOOOOOOOOOOOOOOOOOOOOOOO",
"OOOOOOOOOOOOOOOOOOOOOOOOOOOOOOOOOOOOOOOOOOOOOOOOOOOOOOOOOOOOOOOO",
"OOOOOOOOOOOOOOOOOOOOOOOOOOOOOOOOOOOOOOOOOOOOOOOOOOOOOOOOOOOOOOOO",
"OOOOOOOOOOOOOOOOOOOOOOOOOOOOOOOOOOOOOOOOOOOOOOOOOOOOOOOOOOOOOOOO",
"OOOOOOOOOOXXXXXXXX..................XXXXXXXXXXXXXXXXXXOOOOOOOOOO",
"OOOOOOOOOOXXXXXXXX..................XXXXXXXXXXXXXXXXXXOOOOOOOOOO",
"OOOOOOOOOOOOOOOOOOOOOOOOOOOOOOOOOOOOOOOOOOOOOOOOOOOOOOOOOOOOOOOO",
"OOOOOOOOOOOOOOOOOOOOOOOOOOOOOOOOOOOOOOOOOOOOOOOOOOOOOOOOOOOOOOOO",
"OOOOOOOOOOOOOOOOOOOOOOOOOOOOOOOOOOOOOOOOOOOOOOOOOOOOOOOOOOOOOOOO",
"OOOOOOOOOOOOOOOOOOOOOOOOOOOOOOOOOOOOOOOOOOOOOOOOOOOOOOOOOOOOOOOO"
};
