/* XPM */
static char *_2Logo_1_641673254001[] = {
/* columns rows colors chars-per-pixel */
"64 64 5 1 ",
"  c None",
". c black",
"X c #8B9BB4",
"o c #C0CBDC",
"O c white",
/* pixels */
"                                                                ",
"                                                                ",
"                                                                ",
"                                                                ",
"                                                                ",
"                                                                ",
"                                                                ",
"                                                                ",
"                      OOOOOOOOOOOO  OOOOOOOOOOOOOOOOOOOOOOOO    ",
"                      OOOOOOOOOOOO  OOOOOOOOOOOOOOOOOOOOOOOO    ",
"                    OO..........OO  OO....................OO    ",
"                    OO..........OO  OO....................OO    ",
"                  OO..........OO    OO........OO..........OO    ",
"                  OO..........OO    OO........OO..........OO    ",
"                OO..........OO      OO......OOOO..........OO    ",
"                OO..........OO      OO......OOOO..........OO    ",
"              OO..........OO        OO....OO  OO..........OO    ",
"              OO..........OO        OO....OO  OO..........OO    ",
"            OO..........OO          OO..OO    OO..........OO    ",
"            OO..........OO          OO..OO    OO..........OO    ",
"          OO..........OO            OOOO    OO..........OO      ",
"          OO..........OO            OOOO    OO..........OO      ",
"        OO..........OO                    OO..........OO        ",
"        OO..........OO                    OO..........OO        ",
"      OO..........OO                    OO..........OO          ",
"      OO..........OO                    OO..........OO          ",
"    OO..........OOOOOOOOOOOOOOOOOO    OO..........OO    OOOO    ",
"    OO..........OOOOOOOOOOOOOOOOOO    OO..........OO    OOOO    ",
"    OO..........................OO  OO..........OO    OO..OO    ",
"    OO..........................OO  OO..........OO    OO..OO    ",
"    OO..........................OO  OO..........OO  OO....OO    ",
"    OO..........................OO  OO..........OO  OO....OO    ",
"    OO..........................OO  OO..........OOOO......OO    ",
"    OO..........................OO  OO..........OOOO......OO    ",
"    OO..........................OO  OO..........OO........OO    ",
"    OO..........................OO  OO..........OO........OO    ",
"    OO..........................OO  OO....................OO    ",
"    OO..........................OO  OO....................OO    ",
"    OOOOOOOOOOOOOOOOOO..........OO  OOOOOOOOOOOOOOOOOOOOOOOO    ",
"    OOOOOOOOOOOOOOOOOO..........OO  OOOOOOOOOOOOOOOOOOOOOOOO    ",
"                    OO..........OO                              ",
"                    OO..........OO                              ",
"                    OO..........OO                              ",
"                    OO..........OO                              ",
"                    OO..........OO                              ",
"                    OO..........OO                              ",
"                    OO..........OO                              ",
"                    OO..........OO                              ",
"                    OOOOOOOOOOOOOO                              ",
"                    OOOOOOOOOOOOOO                              ",
"                                                                ",
"                                                                ",
"                                                                ",
"                                                                ",
"                                                                ",
"                                                                ",
"                                                                ",
"                                                                ",
"              ooooooooXXXXXXXXXXoooooooooooooooooo              ",
"              ooooooooXXXXXXXXXXoooooooooooooooooo              ",
"                                                                ",
"                                                                ",
"                                                                ",
"                                                                "
};
