/* XPM */
static char *result[] = {
/* columns rows colors chars-per-pixel */
"32 32 12 1 ",
"  c black",
". c #3A4466",
"X c #D6932E",
"o c #FEAE34",
"O c #D6C353",
"+ c #FEE761",
"@ c #8B9BB4",
"# c #A3ACBA",
"$ c #C0CBDC",
"% c #E8E2E2",
"& c white",
"* c None",
/* pixels */
"********************************",
"********************************",
"********************************",
"***********   ******************",
"********** &&& ***  ************",
"********* &&&&&   && ***********",
"******** &&&&%&&&&&&% **********",
"******** %&&&%&&&&&%& **********",
"********* %&%O+++++$    ********",
"********** &OX+o+o+$$$$$ *******",
"********** &OX+o+o+$   $$ ******",
"********** #OX+o+o+$ ** $ ******",
"********** #OX+o+o+$ ** $ ******",
"********** #OX+o+o+$ ** $ ******",
"********** #OX+o+o+$   $$ ******",
"********** #OO+++++$$$$$ *******",
"********** ##OO+++$$    ********",
"*********** ####$$$ ************",
"************       *************",
"********************************",
"********************************",
"********************************",
"********************************",
"********************************",
"********************************",
"********************************",
"************@@@.@@@*************",
"********************************",
"********************************",
"********************************",
"********************************",
"********************************"
};
