/* XPM */
static char *result[] = {
/* columns rows colors chars-per-pixel */
"128 128 4 1 ",
"  c black",
". c #91283B",
"X c #FEAE34",
"o c None",
/* pixels */
"oooo            oooooo            oooooooooooooooooooooo      oooooooooooooo            oooo      oooo      oooo            oooo",
"oooo            oooooo            oooooooooooooooooooooo      oooooooooooooo            oooo      oooo      oooo            oooo",
"oo  XXXXXXXXXXXX  oo  XXXXXXXXXXXX  oooooooooooooooooo  XXXXXX  oooooooooo  XXXXXXXXXXXX    XXXXXX    XXXXXX    XXXXXXXXXXXX  oo",
"oo  XXXXXXXXXXXX  oo  XXXXXXXXXXXX  oooooooooooooooooo  XXXXXX  oooooooooo  XXXXXXXXXXXX    XXXXXX    XXXXXX    XXXXXXXXXXXX  oo",
"  XXXXXXXXXXXXXXXX  XXXXXXXXXXXXXXXX  oooooooooooooooo  XXXXXX  oooooooo  XXXXXXXXXXXXXXXX  XXXXXX    XXXXXX  XXXXXXXXXXXXXXXX  ",
"  XXXXXXXXXXXXXXXX  XXXXXXXXXXXXXXXX  oooooooooooooooo  XXXXXX  oooooooo  XXXXXXXXXXXXXXXX  XXXXXX    XXXXXX  XXXXXXXXXXXXXXXX  ",
"  XXXXXX....XXXXXX  XXXXXX....XXXXXX  oooooooooooooooo  XXXXXX  oooooooo  XXXXXX....XXXXXX  XXXXXXXX  XXXXXX  XXXXXX....XXXXXX  ",
"  XXXXXX....XXXXXX  XXXXXX....XXXXXX  oooooooooooooooo  XXXXXX  oooooooo  XXXXXX....XXXXXX  XXXXXXXX  XXXXXX  XXXXXX....XXXXXX  ",
"  XXXXXXXXXX......  XXXXXX....XXXXXX  oooooooooooooooo  XXXXXX  oooooooo  XXXXXX....XXXXXX  XXXXXXXX  XXXXXX  XXXXXX..........  ",
"  XXXXXXXXXX......  XXXXXX....XXXXXX  oooooooooooooooo  XXXXXX  oooooooo  XXXXXX....XXXXXX  XXXXXXXX  XXXXXX  XXXXXX..........  ",
"  ..XXXXXXXXXXXX..  XXXXXX    XXXXXX  oooooooooooooooo  XXXXXX  oooooooo  XXXXXX    XXXXXX  XXXXXXXXXXXXXXXX  XXXXXX  XXXXXXXX  ",
"  ..XXXXXXXXXXXX..  XXXXXX    XXXXXX  oooooooooooooooo  XXXXXX  oooooooo  XXXXXX    XXXXXX  XXXXXXXXXXXXXXXX  XXXXXX  XXXXXXXX  ",
"  ......XXXXXXXXXX  XXXXXX    XXXXXX  oooooooooooooooo  XXXXXX  oooooooo  XXXXXX    XXXXXX  XXXXXXXXXXXXXXXX  XXXXXX  XXXXXXXX  ",
"  ......XXXXXXXXXX  XXXXXX    XXXXXX  oooooooooooooooo  XXXXXX  oooooooo  XXXXXX    XXXXXX  XXXXXXXXXXXXXXXX  XXXXXX  XXXXXXXX  ",
"  XXXXXX....XXXXXX  XXXXXX    XXXXXX  oooooooooooooooo  XXXXXX            XXXXXX    XXXXXX  XXXXXX..XXXXXXXX  XXXXXX  ..XXXXXX  ",
"  XXXXXX....XXXXXX  XXXXXX    XXXXXX  oooooooooooooooo  XXXXXX            XXXXXX    XXXXXX  XXXXXX..XXXXXXXX  XXXXXX  ..XXXXXX  ",
"  XXXXXXXXXXXXXXXX  XXXXXXXXXXXXXXXX  oooooooooooooooo  XXXXXXXXXXXXXXXX  XXXXXXXXXXXXXXXX  XXXXXX....XXXXXX  XXXXXXXXXXXXXXXX  ",
"  XXXXXXXXXXXXXXXX  XXXXXXXXXXXXXXXX  oooooooooooooooo  XXXXXXXXXXXXXXXX  XXXXXXXXXXXXXXXX  XXXXXX....XXXXXX  XXXXXXXXXXXXXXXX  ",
"  ..XXXXXXXXXXXX..  ..XXXXXXXXXXXX..                    XXXXXXXXXXXXXXXX  ..XXXXXXXXXXXX..  XXXXXX  ..XXXXXX  ..XXXXXXXXXXXX..  ",
"  ..XXXXXXXXXXXX..  ..XXXXXXXXXXXX..                    XXXXXXXXXXXXXXXX  ..XXXXXXXXXXXX..  XXXXXX  ..XXXXXX  ..XXXXXXXXXXXX..  ",
"  ................  ................  XXXXXXXXXXXXXXXX  ................  ................  ......    ......  ................  ",
"  ................  ................  XXXXXXXXXXXXXXXX  ................  ................  ......    ......  ................  ",
"oo  ............  oo  ............    XXXXXXXXXXXXXXXX  ................    ............    ......    ......    ............  oo",
"oo  ............  oo  ............    XXXXXXXXXXXXXXXX  ................    ............    ......    ......    ............  oo",
"oooo            oooooo            oo  ................                  oooo            oooo      oooo      oooo            oooo",
"oooo            oooooo            oo  ................                  oooo            oooo      oooo      oooo            oooo",
"oooooooooooooooooooooooooooooooooooo  ................  oooooooooooooooooooooooooooooooooooooooooooooooooooooooooooooooooooooooo",
"oooooooooooooooooooooooooooooooooooo  ................  oooooooooooooooooooooooooooooooooooooooooooooooooooooooooooooooooooooooo",
"oooooooooooooooooooooooooooooooooooooo                oooooooooooooooooooooooooooooooooooooooooooooooooooooooooooooooooooooooooo",
"oooooooooooooooooooooooooooooooooooooo                oooooooooooooooooooooooooooooooooooooooooooooooooooooooooooooooooooooooooo",
"oooooooooooooooooooooooooooooooooooooooooooooooooooooooooooooooooooooooooooooooooooooooooooooooooooooooooooooooooooooooooooooooo",
"oooooooooooooooooooooooooooooooooooooooooooooooooooooooooooooooooooooooooooooooooooooooooooooooooooooooooooooooooooooooooooooooo",
"oooooooooooooooooooooooooooooooooooooooooooooooooooooooooooooooooooooooooooooooooooooooooooooooooooooooooooooooooooooooooooooooo",
"oooooooooooooooooooooooooooooooooooooooooooooooooooooooooooooooooooooooooooooooooooooooooooooooooooooooooooooooooooooooooooooooo",
"oooooooooooooooooooooooooooooooooooooooooooooooooooooooooooooooooooooooooooooooooooooooooooooooooooooooooooooooooooooooooooooooo",
"oooooooooooooooooooooooooooooooooooooooooooooooooooooooooooooooooooooooooooooooooooooooooooooooooooooooooooooooooooooooooooooooo",
"oooooooooooooooooooooooooooooooooooooooooooooooooooooooooooooooooooooooooooooooooooooooooooooooooooooooooooooooooooooooooooooooo",
"oooooooooooooooooooooooooooooooooooooooooooooooooooooooooooooooooooooooooooooooooooooooooooooooooooooooooooooooooooooooooooooooo",
"oooooooooooooooooooooooooooooooooooooooooooooooooooooooooooooooooooooooooooooooooooooooooooooooooooooooooooooooooooooooooooooooo",
"oooooooooooooooooooooooooooooooooooooooooooooooooooooooooooooooooooooooooooooooooooooooooooooooooooooooooooooooooooooooooooooooo",
"oooooooooooooooooooooooooooooooooooooooooooooooooooooooooooooooooooooooooooooooooooooooooooooooooooooooooooooooooooooooooooooooo",
"oooooooooooooooooooooooooooooooooooooooooooooooooooooooooooooooooooooooooooooooooooooooooooooooooooooooooooooooooooooooooooooooo",
"oooooooooooooooooooooooooooooooooooooooooooooooooooooooooooooooooooooooooooooooooooooooooooooooooooooooooooooooooooooooooooooooo",
"oooooooooooooooooooooooooooooooooooooooooooooooooooooooooooooooooooooooooooooooooooooooooooooooooooooooooooooooooooooooooooooooo",
"oooooooooooooooooooooooooooooooooooooooooooooooooooooooooooooooooooooooooooooooooooooooooooooooooooooooooooooooooooooooooooooooo",
"oooooooooooooooooooooooooooooooooooooooooooooooooooooooooooooooooooooooooooooooooooooooooooooooooooooooooooooooooooooooooooooooo",
"oooooooooooooooooooooooooooooooooooooooooooooooooooooooooooooooooooooooooooooooooooooooooooooooooooooooooooooooooooooooooooooooo",
"oooooooooooooooooooooooooooooooooooooooooooooooooooooooooooooooooooooooooooooooooooooooooooooooooooooooooooooooooooooooooooooooo",
"oooooooooooooooooooooooooooooooooooooooooooooooooooooooooooooooooooooooooooooooooooooooooooooooooooooooooooooooooooooooooooooooo",
"oooooooooooooooooooooooooooooooooooooooooooooooooooooooooooooooooooooooooooooooooooooooooooooooooooooooooooooooooooooooooooooooo",
"oooooooooooooooooooooooooooooooooooooooooooooooooooooooooooooooooooooooooooooooooooooooooooooooooooooooooooooooooooooooooooooooo",
"oooooooooooooooooooooooooooooooooooooooooooooooooooooooooooooooooooooooooooooooooooooooooooooooooooooooooooooooooooooooooooooooo",
"oooooooooooooooooooooooooooooooooooooooooooooooooooooooooooooooooooooooooooooooooooooooooooooooooooooooooooooooooooooooooooooooo",
"oooooooooooooooooooooooooooooooooooooooooooooooooooooooooooooooooooooooooooooooooooooooooooooooooooooooooooooooooooooooooooooooo",
"oooooooo       oo       oo       oo      ooo      ooooooooooooooo   ooo       o   oo   o        o       o       oooo   ooooooooo",
"ooooooo XXXXXXX  XXXXXXX  XXXXXXX  XXXXXX o XXXXXX ooooooooooooo XXX o XXXXXXX XXX  XXX XXXXXXXX XXXXXXX XXXXXXX oo XXX oooooooo",
"ooooooo XXXXXXXX XXXXXXXX XXXXXXX XXXXXXXX XXXXXXXX ooooooooooo XXX. o XXXXXXX XXX  XXX XXXXXXXX XXXXXXX XXXXXXXX o .XXX ooooooo",
"ooooooo XXX..XXX XXX..XXX XXX.... XXX..XXX XXX..XXX oooooooooo XXX.. o XXX.... XXXX XXX ...XX... XXX.... XXX..XXX o ..XXX oooooo",
"ooooooo XXX..XXX XXX.XXXX XXX.... XXXXX... XXXXX... ooooooooo XXX.. oo XXX.... XXXX XXX ...XX... XXX.... XXX.XXXX oo ..XXX ooooo",
"ooooooo XXX XXXX XXXXXX.. XXXXX   .XXXXXX. .XXXXXX. oooooooo XXX.. ooo XXXXX   XXXXXXXX    XX    XXXXX   XXXXXX.. ooo ..XXX oooo",
"ooooooo XXXXXXXX XXXXXXX. XXXXX o ...XXXXX ...XXXXX oooooooo .XXX oooo XXXXX o XXXXXXXX oo XX oo XXXXX o XXXXXXX. oooo XXX. oooo",
"ooooooo XXXXXX.. XXX..XXX XXX..   XXX..XXX XXX..XXX oooooooo ..XXX ooo XXX..   XXX.XXXX oo XX oo XXX..   XXX..XXX ooo XXX.. oooo",
"ooooooo XXX..... XXX..XXX XXXXXXX XXXXXXXX XXXXXXXX ooooooooo ..XXX oo XXXXXXX XXX..XXX oo XX oo XXXXXXX XXX..XXX oo XXX.. ooooo",
"ooooooo XXX...   XXX  XXX XXXXXXX .XXXXXX. .XXXXXX. oooooooooo ..XXX o XXXXXXX XXX .XXX oo XX oo XXXXXXX XXX  XXX o XXX.. oooooo",
"ooooooo ...   oo ...  ... ....... ........ ........ ooooooooooo .... o ....... ...  ... oo .. oo ....... ...  ... o .... ooooooo",
"ooooooo ... oooo ...  ... .......  ...... o ...... ooooooooooooo ... o ....... ...  ... oo .. oo ....... ...  ... o ... oooooooo",
"oooooooo   oooooo   oo   o       oo      ooo      ooooooooooooooo   ooo       o   oo   oooo  oooo       o   oo   ooo   ooooooooo",
"oooooooooooooooooooooooooooooooooooooooooooooooooooooooooooooooooooooooooooooooooooooooooooooooooooooooooooooooooooooooooooooooo",
"oooooooooooooooooooooooooooooooooooooooooooooooooooooooooooooooooooooooooooooooooooooooooooooooooooooooooooooooooooooooooooooooo",
"oooooooooooooooooooooooooooooooooooooooooooooooooooooooooooooooooooooooooooooooooooooooooooooooooooooooooooooooooooooooooooooooo",
"oooooooooooooooooooooooooooooooooooooooooooooooooooooooooooooooooooooooooooooooooooooooooooooooooooooooooooooooooooooooooooooooo",
"oooooooooooooooooooooooooooooooooooooooooooooooooooooooooooooooooooooooooooooooooooooooooooooooooooooooooooooooooooooooooooooooo",
"oooooooooooooooooooooooooooooooooooooooooooooooooooooooooooooooooooooooooooooooooooooooooooooooooooooooooooooooooooooooooooooooo",
"oooooooooooooooooooooooooooooooooooooooooooooooooooooooooooooooooooooooooooooooooooooooooooooooooooooooooooooooooooooooooooooooo",
"oooooooooooooooooooooooooooooooooooooooooooooooooooooooooooooooooooooooooooooooooooooooooooooooooooooooooooooooooooooooooooooooo",
"oooooooooooooooooooooooooooooooooooooooooooooooooooooooooooooooooooooooooooooooooooooooooooooooooooooooooooooooooooooooooooooooo",
"oooooooooooooooooooooooooooooooooooooooooooooooooooooooooooooooooooooooooooooooooooooooooooooooooooooooooooooooooooooooooooooooo",
"oooooooooooooooooooooooooooooooooooooooooooooooooooooooooooooooooooooooooooooooooooooooooooooooooooooooooooooooooooooooooooooooo",
"ooooooooooooooooooooooooooooo        oo      oooooooooooo      oo        oo      oo       oo        oooooooooooooooooooooooooooo",
"oooooooooooooooooooooooooooo XXXXXXXX  XXXXXX oooooooooo XXXXXX  XXXXXXXX  XXXXXX  XXXXXXX  XXXXXXXX ooooooooooooooooooooooooooo",
"oooooooooooooooooooooooooooo XXXXXXXX XXXXXXXX oooooooo XXXXXXXX XXXXXXXX XXXXXXXX XXXXXXXX XXXXXXXX ooooooooooooooooooooooooooo",
"oooooooooooooooooooooooooooo ...XX... XXX..XXX oooooooo XXX..XXX ...XX... XXX..XXX XXX..XXX ...XX... ooooooooooooooooooooooooooo",
"oooooooooooooooooooooooooooo ...XX... XXX..XXX oooooooo XXXXX... ...XX... XXX..XXX XXX.XXXX ...XX... ooooooooooooooooooooooooooo",
"ooooooooooooooooooooooooooooo   XX    XXX  XXX oooooooo .XXXXXX.    XX    XXX  XXX XXXXXX..    XX   oooooooooooooooooooooooooooo",
"ooooooooooooooooooooooooooooooo XX oo XXX  XXX oooooooo ...XXXXX oo XX oo XXXXXXXX XXXXXXX. oo XX oooooooooooooooooooooooooooooo",
"ooooooooooooooooooooooooooooooo XX oo XXX  XXX oooooooo XXX..XXX oo XX oo XXXXXXXX XXX..XXX oo XX oooooooooooooooooooooooooooooo",
"ooooooooooooooooooooooooooooooo XX oo XXXXXXXX oooooooo XXXXXXXX oo XX oo XXX..XXX XXX..XXX oo XX oooooooooooooooooooooooooooooo",
"ooooooooooooooooooooooooooooooo XX oo .XXXXXX. oooooooo .XXXXXX. oo XX oo XXX..XXX XXX  XXX oo XX oooooooooooooooooooooooooooooo",
"ooooooooooooooooooooooooooooooo .. oo ........ oooooooo ........ oo .. oo ...  ... ...  ... oo .. oooooooooooooooooooooooooooooo",
"ooooooooooooooooooooooooooooooo .. ooo ...... oooooooooo ...... ooo .. oo ...  ... ...  ... oo .. oooooooooooooooooooooooooooooo",
"oooooooooooooooooooooooooooooooo  ooooo      oooooooooooo      ooooo  oooo   oo   o   oo   oooo  ooooooooooooooooooooooooooooooo",
"oooooooooooooooooooooooooooooooooooooooooooooooooooooooooooooooooooooooooooooooooooooooooooooooooooooooooooooooooooooooooooooooo",
"oooooooooooooooooooooooooooooooooooooooooooooooooooooooooooooooooooooooooooooooooooooooooooooooooooooooooooooooooooooooooooooooo",
"oooooooooooooooooooooooooooooooooooooooooooooooooooooooooooooooooooooooooooooooooooooooooooooooooooooooooooooooooooooooooooooooo",
"oooooooooooooooooooooooooooooooooooooooooooooooooooooooooooooooooooooooooooooooooooooooooooooooooooooooooooooooooooooooooooooooo",
"oooooooooooooooooooooooooooooooooooooooooooooooooooooooooooooooooooooooooooooooooooooooooooooooooooooooooooooooooooooooooooooooo",
"oooooooooooooooooooooooooooooooooooooooooooooooooooooooooooooooooooooooooooooooooooooooooooooooooooooooooooooooooooooooooooooooo",
"oooooooooooooooooooooooooooooooooooooooooooooooooooooooooooooooooooooooooooooooooooooooooooooooooooooooooooooooooooooooooooooooo",
"oooooooooooooooooooooooooooooooooooooooooooooooooooooooooooooooooooooooooooooooooooooooooooooooooooooooooooooooooooooooooooooooo",
"oooooooooooooooooooooooooooooooooooooooooooooooooooooooooooooooooooooooooooooooooooooooooooooooooooooooooooooooooooooooooooooooo",
"oooooooooooooooooooooooooooooooooooooooooooooooooooooooooooooooooooooooooooooooooooooooooooooooooooooooooooooooooooooooooooooooo",
"oooooooooooooooooooooooooooooooooooooooooooooooooooooooooooooooooooooooooooooooooooooooooooooooooooooooooooooooooooooooooooooooo",
"oooooooooooooooooooooooooooooooooooooooooooooooooooooooooooooooooooooooooooooooooooooooooooooooooooooooooooooooooooooooooooooooo",
"oooooooooooooooooooooooooooooooooooooooooooooooooooooooooooooooooooooooooooooooooooooooooooooooooooooooooooooooooooooooooooooooo",
"oooooooooooooooooooooooooooooooooooooooooooooooooooooooooooooooooooooooooooooooooooooooooooooooooooooooooooooooooooooooooooooooo",
"oooooooooooooooooooooooooooooooooooooooooooooooooooooooooooooooooooooooooooooooooooooooooooooooooooooooooooooooooooooooooooooooo",
"oooooooooooooooooooooooooooooooooooooooooooooooooooooooooooooooooooooooooooooooooooooooooooooooooooooooooooooooooooooooooooooooo",
"oooooooooooooooooooooooooooooooooooooooooooooooooooooooooooooooooooooooooooooooooooooooooooooooooooooooooooooooooooooooooooooooo",
"oooooooooooooooooooooooooooooooooooooooooooooooooooooooooooooooooooooooooooooooooooooooooooooooooooooooooooooooooooooooooooooooo",
"oooooooooooooooooooooooooooooooooooooooooooooooooooooooooooooooooooooooooooooooooooooooooooooooooooooooooooooooooooooooooooooooo",
"oooooooooooooooooooooooooooooooooooooooooooooooooooooooooooooooooooooooooooooooooooooooooooooooooooooooooooooooooooooooooooooooo",
"oooooooooooooooooooooooooooooooooooooooooooooooooooooooooooooooooooooooooooooooooooooooooooooooooooooooooooooooooooooooooooooooo",
"oooooooooooooooooooooooooooooooooooooooooooooooooooooooooooooooooooooooooooooooooooooooooooooooooooooooooooooooooooooooooooooooo",
"oooooooooooooooooooooooooooooooooooooooooooooooooooooooooooooooooooooooooooooooooooooooooooooooooooooooooooooooooooooooooooooooo",
"oooooooooooooooooooooooooooooooooooooooooooooooooooooooooooooooooooooooooooooooooooooooooooooooooooooooooooooooooooooooooooooooo",
"oooooooooooooooooooooooooooooooooooooooooooooooooooooooooooooooooooooooooooooooooooooooooooooooooooooooooooooooooooooooooooooooo",
"oooooooooooooooooooooooooooooooooooooooooooooooooooooooooooooooooooooooooooooooooooooooooooooooooooooooooooooooooooooooooooooooo",
"oooooooooooooooooooooooooooooooooooooooooooooooooooooooooooooooooooooooooooooooooooooooooooooooooooooooooooooooooooooooooooooooo",
"oooooooooooooooooooooooooooooooooooooooooooooooooooooooooooooooooooooooooooooooooooooooooooooooooooooooooooooooooooooooooooooooo",
"oooooooooooooooooooooooooooooooooooooooooooooooooooooooooooooooooooooooooooooooooooooooooooooooooooooooooooooooooooooooooooooooo",
"oooooooooooooooooooooooooooooooooooooooooooooooooooooooooooooooooooooooooooooooooooooooooooooooooooooooooooooooooooooooooooooooo",
"oooooooooooooooooooooooooooooooooooooooooooooooooooooooooooooooooooooooooooooooooooooooooooooooooooooooooooooooooooooooooooooooo",
"oooooooooooooooooooooooooooooooooooooooooooooooooooooooooooooooooooooooooooooooooooooooooooooooooooooooooooooooooooooooooooooooo",
"oooooooooooooooooooooooooooooooooooooooooooooooooooooooooooooooooooooooooooooooooooooooooooooooooooooooooooooooooooooooooooooooo",
"oooooooooooooooooooooooooooooooooooooooooooooooooooooooooooooooooooooooooooooooooooooooooooooooooooooooooooooooooooooooooooooooo",
"oooooooooooooooooooooooooooooooooooooooooooooooooooooooooooooooooooooooooooooooooooooooooooooooooooooooooooooooooooooooooooooooo",
"oooooooooooooooooooooooooooooooooooooooooooooooooooooooooooooooooooooooooooooooooooooooooooooooooooooooooooooooooooooooooooooooo",
"oooooooooooooooooooooooooooooooooooooooooooooooooooooooooooooooooooooooooooooooooooooooooooooooooooooooooooooooooooooooooooooooo"
};
