/* XPM */
static char *result[] = {
/* columns rows colors chars-per-pixel */
"64 64 12 1 ",
"  c black",
". c #1D310A",
"X c #462F2C",
"o c #583E2A",
"O c #2C4911",
"+ c #684A32",
"@ c #684641",
"# c #6C6563",
"$ c #845D3E",
"% c #9B6E4B",
"& c #A19794",
"* c white",
/* pixels */
"@@@@@@@@@@@@@@@@@@@@@@@@@@@@@@@@@@@@@@@@@@@@@@@@@@@@@@@@@@@@@@@@",
"@@@@@@@@@@@@@@@@@@@@@@@@@@@@@@@@@@@@@@@@@@@@@@@@@@@@@@@@@@@@@@@@",
"@@%%%%%%%%%%%%%%%%%%%%%%%%%%%%%%%%%%%%%%%%%%%%%%%%%%%%%%%%%%%%@@",
"@@%%%%%%%%%%%%%%%%%%%%%%%%%%%%%%%%%%%%%%%%%%%%%%%%%%%%%%%%%%%%@@",
"@@@@@@@@%%%%OOOOOOOOOO%%%%%%%%%%%%%%%%%%%%OOOOOOOOOO%%%%%%&&%%@@",
"@@@@@@@@%%%%OOOOOOOOOO%%%%%%%%%%%%%%%%%%%%OOOOOOOOOO%%%%%%&&%%@@",
"@@$$$$$$$$OOOOOOOOOOOOOO$$$$$$$$$$$$$$%%OOOOOOOOOOOOOO$$$$$$$$@@",
"@@$$$$$$$$OOOOOOOOOOOOOO$$$$$$$$$$$$$$%%OOOOOOOOOOOOOO$$$$$$$$@@",
"                                                                ",
"                                                                ",
"  ************************************************************  ",
"  ************************************************************  ",
"  ************************************************************  ",
"  ************************************************************  ",
"  ************************************************************  ",
"  ************************************************************  ",
"  ************************************************************  ",
"  ************************************************************  ",
"  ************************************************************  ",
"  ************************************************************  ",
"  ************************************************************  ",
"  ************************************************************  ",
"  ************************************************************  ",
"  ************************************************************  ",
"  ************************************************************  ",
"  ************************************************************  ",
"                                                                ",
"                                                                ",
"  ************************************************************  ",
"  ************************************************************  ",
"  ************************************************************  ",
"  ************************************************************  ",
"  ************************************************************  ",
"  ************************************************************  ",
"  ************************************************************  ",
"  ************************************************************  ",
"  ************************************************************  ",
"  ************************************************************  ",
"  ************************************************************  ",
"  ************************************************************  ",
"  ************************************************************  ",
"  ************************************************************  ",
"  **********OOOOOOOOOO********************OOOOOOOOOO**********  ",
"  **********OOOOOOOOOO********************OOOOOOOOOO**********  ",
"          OOOOOOOOOOOOOO                OOOOOOOOOOOOOO          ",
"          OOOOOOOOOOOOOO                OOOOOOOOOOOOOO          ",
"XXXX    XXOO..OOOOOO..OOXXXXXXXXXXXXXXXXOO..OOOOOO..OOXX    XXXX",
"XXXX    XXOO..OOOOOO..OOXXXXXXXXXXXXXXXXOO..OOOOOO..OOXX    XXXX",
"XXXX    XXOO..OOOOOO..OOXXXXXXXXXXXXXXXXOO..OOOOOO..OOXX    XXXX",
"XXXX    XXOO..OOOOOO..OOXXXXXXXXXXXXXXXXOO..OOOOOO..OOXX    XXXX",
"++++    ++OO..OOOOOO..OO++++++++++XXXX++OO..OOOOOO..OO++    ++++",
"++++    ++OO..OOOOOO..OO++++++++++XXXX++OO..OOOOOO..OO++    ++++",
"$$oo    ++OO..OOOOOO..OO++++++##++XXXX++OO..OOOOOO..OO++    ++++",
"$$oo    ++OO..OOOOOO..OO++++++##++XXXX++OO..OOOOOO..OO++    ++++",
"%%%%    $$OO..OOOOOO..OO%%%%$$$$$$@@@@@@OO..OOOOOO..OO%%    $$%%",
"%%%%    $$OO..OOOOOO..OO%%%%$$$$$$@@@@@@OO..OOOOOO..OO%%    $$%%",
"%%%%%%%%%%..OOOOOOOOOO..%%%%%%%%%%@@@@%%..OOOOOOOOOO..%%%%%%%%%%",
"%%%%%%%%%%..OOOOOOOOOO..%%%%%%%%%%@@@@%%..OOOOOOOOOO..%%%%%%%%%%",
"$$$$$$%%%%..++..XX..@@..%%%%$$&&%%@@@@$$..++..++..++..%%%%%%%%$$",
"$$$$$$%%%%..++..XX..@@..%%%%$$&&%%@@@@$$..++..++..++..%%%%%%%%$$",
"$$$$$$$$$$..++++++++++..%%%%%%%%%%@@@@%%..++++++++++..%%%%%%$$%%",
"$$$$$$$$$$..++++++++++..%%%%%%%%%%@@@@%%..++++++++++..%%%%%%$$%%",
"@@@@@@@@@@@@@@@@@@@@@@@@@@@@@@@@@@@@@@@@@@@@@@@@@@@@@@@@@@@@@@@@",
"@@@@@@@@@@@@@@@@@@@@@@@@@@@@@@@@@@@@@@@@@@@@@@@@@@@@@@@@@@@@@@@@"
};
