/* XPM */
static char *result[] = {
/* columns rows colors chars-per-pixel */
"32 32 12 1 ",
"  c black",
". c #1D310A",
"X c #462F2C",
"o c #583E2A",
"O c #2C4911",
"+ c #684A32",
"@ c #684641",
"# c #6C6563",
"$ c #845D3E",
"% c #9B6E4B",
"& c #A19794",
"* c white",
/* pixels */
"@@@@@@@@@@@@@@@@@@@@@@@@@@@@@@@@",
"@%%%%%%%%%%%%%%%%%%%%%%%%%%%%%%@",
"@@@@%%OOOOO%%%%%%%%%%OOOOO%%%&%@",
"@$$$$OOOOOOO$$$$$$$%OOOOOOO$$$$@",
"                                ",
" ****************************** ",
" ****************************** ",
" ****************************** ",
" ****************************** ",
" ****************************** ",
" ****************************** ",
" ****************************** ",
" ****************************** ",
"                                ",
" ****************************** ",
" ****************************** ",
" ****************************** ",
" ****************************** ",
" ****************************** ",
" ****************************** ",
" ****************************** ",
" *****OOOOO**********OOOOO***** ",
"     OOOOOOO        OOOOOOO     ",
"XX  XO.OOO.OXXXXXXXXO.OOO.OX  XX",
"XX  XO.OOO.OXXXXXXXXO.OOO.OX  XX",
"++  +O.OOO.O+++++XX+O.OOO.O+  ++",
"$o  +O.OOO.O+++#+XX+O.OOO.O+  ++",
"%%  $O.OOO.O%%$$$@@@O.OOO.O%  $%",
"%%%%%.OOOOO.%%%%%@@%.OOOOO.%%%%%",
"$$$%%.+.X.@.%%$&%@@$.+.+.+.%%%%$",
"$$$$$.+++++.%%%%%@@%.+++++.%%%$%",
"@@@@@@@@@@@@@@@@@@@@@@@@@@@@@@@@"
};
