/* XPM */
static char *result[] = {
/* columns rows colors chars-per-pixel */
"32 32 7 1 ",
"  c #376225",
". c #5B6D83",
"X c #847E87",
"o c #5FCDE4",
"O c #C6EBA4",
"+ c #BDD2DE",
"@ c white",
/* pixels */
"XXXXXXXXXXXXXXXXXXXXXXXXXXXXXXXX",
"XXXXXXXXXXXXXXXXXXXXXXXXXXXXXXXX",
"   +.....................+   OOO",
"   +.....................+   OOO",
"   +.....................+   OOO",
"   +.....................+   OOO",
"   +.....................+   OOO",
"   +.....................+   OOO",
"   +.....................+   OOO",
"   +.....................+   OOO",
"   +.....................+   OOO",
"   +++++++++++++++++++++++   OOO",
"   +oooo+@@oo@@ooooo+oooo+   OOO",
"   +oooo+@oo@@oooooo+Xooo+   OOO",
"   +ooo@+oo@@ooooooo+Xooo+   OOO",
"   +oo@@+o@@oooooooo+oooo+   OOO",
"   +o@@oX@@ooooooooo+oooo+   OOO",
"   +@@ooX@oooooooooo+oooo+   OOO",
"   +@oo@Xooooooooooo+oooo+   OOO",
"   +oo@@+ooooooooooo+oooo+   OOO",
"   +o@@o+ooooooooooo+Xooo+   OOO",
"   +@@oo+ooooooooooo+Xooo+   OOO",
"   +@ooo+ooooooooooo+oooo+   OOO",
"   +++++++++++++++++++++++   OOO",
"   +.....................+   OOO",
"   +.....................+   OOO",
"   +.....................+   OOO",
"   +.....................+   OOO",
"   +.....................+   OOO",
"   +.....................+   OOO",
"   +.....................+   OOO",
"   +.....................+   OOO"
};
