/* XPM */
static char *result[] = {
/* columns rows colors chars-per-pixel */
"64 64 7 1 ",
"  c #376225",
". c #5B6D83",
"X c #847E87",
"o c #5FCDE4",
"O c #C6EBA4",
"+ c #BDD2DE",
"@ c white",
/* pixels */
"XXXXXXXXXXXXXXXXXXXXXXXXXXXXXXXXXXXXXXXXXXXXXXXXXXXXXXXXXXXXXXXX",
"XXXXXXXXXXXXXXXXXXXXXXXXXXXXXXXXXXXXXXXXXXXXXXXXXXXXXXXXXXXXXXXX",
"XXXXXXXXXXXXXXXXXXXXXXXXXXXXXXXXXXXXXXXXXXXXXXXXXXXXXXXXXXXXXXXX",
"XXXXXXXXXXXXXXXXXXXXXXXXXXXXXXXXXXXXXXXXXXXXXXXXXXXXXXXXXXXXXXXX",
"      ++..........................................++      OOOOOO",
"      ++..........................................++      OOOOOO",
"      ++..........................................++      OOOOOO",
"      ++..........................................++      OOOOOO",
"      ++..........................................++      OOOOOO",
"      ++..........................................++      OOOOOO",
"      ++..........................................++      OOOOOO",
"      ++..........................................++      OOOOOO",
"      ++..........................................++      OOOOOO",
"      ++..........................................++      OOOOOO",
"      ++..........................................++      OOOOOO",
"      ++..........................................++      OOOOOO",
"      ++..........................................++      OOOOOO",
"      ++..........................................++      OOOOOO",
"      ++..........................................++      OOOOOO",
"      ++..........................................++      OOOOOO",
"      ++..........................................++      OOOOOO",
"      ++..........................................++      OOOOOO",
"      ++++++++++++++++++++++++++++++++++++++++++++++      OOOOOO",
"      ++++++++++++++++++++++++++++++++++++++++++++++      OOOOOO",
"      ++oooooooo++@@@@oooo@@@@oooooooooo++oooooooo++      OOOOOO",
"      ++oooooooo++@@@@oooo@@@@oooooooooo++oooooooo++      OOOOOO",
"      ++oooooooo++@@oooo@@@@oooooooooooo++XXoooooo++      OOOOOO",
"      ++oooooooo++@@oooo@@@@oooooooooooo++XXoooooo++      OOOOOO",
"      ++oooooo@@++oooo@@@@oooooooooooooo++XXoooooo++      OOOOOO",
"      ++oooooo@@++oooo@@@@oooooooooooooo++XXoooooo++      OOOOOO",
"      ++oooo@@@@++oo@@@@oooooooooooooooo++oooooooo++      OOOOOO",
"      ++oooo@@@@++oo@@@@oooooooooooooooo++oooooooo++      OOOOOO",
"      ++oo@@@@ooXX@@@@oooooooooooooooooo++oooooooo++      OOOOOO",
"      ++oo@@@@ooXX@@@@oooooooooooooooooo++oooooooo++      OOOOOO",
"      ++@@@@ooooXX@@oooooooooooooooooooo++oooooooo++      OOOOOO",
"      ++@@@@ooooXX@@oooooooooooooooooooo++oooooooo++      OOOOOO",
"      ++@@oooo@@XXoooooooooooooooooooooo++oooooooo++      OOOOOO",
"      ++@@oooo@@XXoooooooooooooooooooooo++oooooooo++      OOOOOO",
"      ++oooo@@@@++oooooooooooooooooooooo++oooooooo++      OOOOOO",
"      ++oooo@@@@++oooooooooooooooooooooo++oooooooo++      OOOOOO",
"      ++oo@@@@oo++oooooooooooooooooooooo++XXoooooo++      OOOOOO",
"      ++oo@@@@oo++oooooooooooooooooooooo++XXoooooo++      OOOOOO",
"      ++@@@@oooo++oooooooooooooooooooooo++XXoooooo++      OOOOOO",
"      ++@@@@oooo++oooooooooooooooooooooo++XXoooooo++      OOOOOO",
"      ++@@oooooo++oooooooooooooooooooooo++oooooooo++      OOOOOO",
"      ++@@oooooo++oooooooooooooooooooooo++oooooooo++      OOOOOO",
"      ++++++++++++++++++++++++++++++++++++++++++++++      OOOOOO",
"      ++++++++++++++++++++++++++++++++++++++++++++++      OOOOOO",
"      ++..........................................++      OOOOOO",
"      ++..........................................++      OOOOOO",
"      ++..........................................++      OOOOOO",
"      ++..........................................++      OOOOOO",
"      ++..........................................++      OOOOOO",
"      ++..........................................++      OOOOOO",
"      ++..........................................++      OOOOOO",
"      ++..........................................++      OOOOOO",
"      ++..........................................++      OOOOOO",
"      ++..........................................++      OOOOOO",
"      ++..........................................++      OOOOOO",
"      ++..........................................++      OOOOOO",
"      ++..........................................++      OOOOOO",
"      ++..........................................++      OOOOOO",
"      ++..........................................++      OOOOOO",
"      ++..........................................++      OOOOOO"
};
