/* XPM */
static char *ffcff7c4a3524fc9f3d30d9d7335daf193wrwr1KHCukcug6[] = {
/* columns rows colors chars-per-pixel */
"32 32 6 1 ",
"  c #262B44",
". c #265C42",
"X c #3A4466",
"o c #3E8948",
"O c #5A6988",
"+ c #8B9BB4",
/* pixels */
"X++++++X+ X+++++++XX X++++XX+++X",
"XX+++OOO+ XX+++++++X XX+++++++++",
"XXOOOOO++ XXXOOXOO++   OO++++O++",
"XXOOOOO++ XXOOOOXXX+  XOOOOOOO++",
"XXOOOOO+. OOXXXXXXXX XXO OOOOO+X",
"XXOOXOO+..           XXOOOOOOO+X",
"XXXOOOO+oo +++++++++ XXX XOOO +X",
"XXXOOOOoo XX++++++++   XXXOXOO++",
"XXOOOOOo+ XXOXOOOO++  XXOOOXOO +",
"XXXXOOO++ XXXXXO  ++ XXOOOOOOO++",
"XXXOOOO++  XOOXOO ++ XXOOXXOOX++",
"XXOOOOO++  XOOOOOO+o  XXXXXXXXX+",
"XXOOOOO++ XXOOOOO+o.. XXX  XXXXX",
"XXOOOOO++ XXOOX+X++Xo           ",
"XXOOOOO++ XXOOOXX++X XX+OX++++++",
"XXOXOOO++ XXOXOOOO++ XXOOXX+++++",
"XXOOOOO++ XXXOOOOO++  XXXXOOOO++",
"XXOOXOO++ XXXXOOOO++  XXOOO OO++",
"XXOXXOO++ XOXXXOOXX+ X XOOOOOO++",
"XXXXXXXXooXOOXXXX X+ XXXXXXXXXX+",
"XXXXXXXo.   XXXXX  X XXXXXXooXXX",
"         o   o.           ..    ",
"X+++OXO++++++.o  ++++++++++o++XX",
"XX+++++++++++  o++++++X+++o++++X",
"XXOO+++XOOO++  XOO+OOOOOOOoO++++",
"XXXO+OOOOOO++ XXOOO+++OXOOOoOO++",
"XXOO+OOOX+++O XXOOO++XOOOOXOOO++",
"XXXOOOXXO+++X XXOOOO+O+OOOOOOX++",
" XXOOO+OOO+OX XXXOOXOOOOOOOXXO++",
"X XXXOOOXOO++ +XXOXXOOOOOOXXOO++",
"   XXXXXXXXX+ O++XXXXXXXXXXXXXX+",
"    XXXXXXXXX OO++XXXXXXXXXXXXXX"
};
