/* XPM */
static char *result[] = {
/* columns rows colors chars-per-pixel */
"32 32 3 1 ",
"  c #847E87",
". c #C6EBA4",
"X c None",
/* pixels */
"XXXXXXXXXXXXXXXXXXXXXXXXXX      ",
"XXXXXXXXXXXXXXXXXXXXXXXXXX      ",
"XXXXXXXXXXXXXXXXXXXXXXXXXX   ...",
"XXXXXXXXXXXXXXXXXXXXXXXXXX   ...",
"XXXXXXXXXXXXXXXXXXXXXXXXXX   ...",
"XXXXXXXXXXXXXXXXXXXXXXXXXX   ...",
"XXXXXXXXXXXXXXXXXXXXXXXXXX   ...",
"XXXXXXXXXXXXXXXXXXXXXXXXXX   ...",
"XXXXXXXXXXXXXXXXXXXXXXXXXX   ...",
"XXXXXXXXXXXXXXXXXXXXXXXXXX   ...",
"XXXXXXXXXXXXXXXXXXXXXXXXXX   ...",
"XXXXXXXXXXXXXXXXXXXXXXXXXX   ...",
"XXXXXXXXXXXXXXXXXXXXXXXXXX   ...",
"XXXXXXXXXXXXXXXXXXXXXXXXXX   ...",
"XXXXXXXXXXXXXXXXXXXXXXXXXX   ...",
"XXXXXXXXXXXXXXXXXXXXXXXXXX   ...",
"XXXXXXXXXXXXXXXXXXXXXXXXXX   ...",
"XXXXXXXXXXXXXXXXXXXXXXXXXX   ...",
"XXXXXXXXXXXXXXXXXXXXXXXXXX   ...",
"XXXXXXXXXXXXXXXXXXXXXXXXXX   ...",
"XXXXXXXXXXXXXXXXXXXXXXXXXX   ...",
"XXXXXXXXXXXXXXXXXXXXXXXXXX   ...",
"XXXXXXXXXXXXXXXXXXXXXXXXXX   ...",
"XXXXXXXXXXXXXXXXXXXXXXXXXX   ...",
"XXXXXXXXXXXXXXXXXXXXXXXXXX   ...",
"XXXXXXXXXXXXXXXXXXXXXXXXXX   ...",
"XXXXXXXXXXXXXXXXXXXXXXXXXX   ...",
"XXXXXXXXXXXXXXXXXXXXXXXXXX   ...",
"XXXXXXXXXXXXXXXXXXXXXXXXXX   ...",
"XXXXXXXXXXXXXXXXXXXXXXXXXX   ...",
"XXXXXXXXXXXXXXXXXXXXXXXXXX   ...",
"XXXXXXXXXXXXXXXXXXXXXXXXXX   ..."
};
