/* XPM */
static char *result[] = {
/* columns rows colors chars-per-pixel */
"32 32 15 1 ",
"  c black",
". c #0C0A12",
"X c #1C2132",
"o c #4F1219",
"O c #2C3342",
"+ c #3A4466",
"@ c #444B58",
"# c #5D636B",
"$ c #7C7C7C",
"% c #A22633",
"& c #5A6988",
"* c #8B9BB4",
"= c #C0CBDC",
"- c white",
"; c None",
/* pixels */
";;;;;;;;;;;;;;;;;;;;;;;;;;;;;;;;",
";;;;;;;;;;;;;;      ;;;;;;;;;;;;",
";;;;;;;;;;;;  ++&&&& ;;;;;;;;;;;",
";;;;;;;;;;; XXXXOOOO ;;;;;;;;;;;",
";;;;;;;;;;; ++++&&&& ;;;;;;;;;;;",
";;;;;;;;;; XXXXX$$$$ ;;;;;;;;;;;",
";;;;-;-;;; ++++=----- ;;;;;;;;;;",
";;;;;---;; XXX#  $$$  ;;;;;;;;;;",
";;;;-;-;;; ++= -%   -% ;;;;;;;;;",
";;;;;;;;;; XX# oo $ oo ;;;;;;;;;",
";;;;---;;;;  +=  ---  ;;;;-;;;;;",
";;;;;--;;;;; XX#$OOO$ ;;;;-;;;;;",
";;;;---;;;;; +++&&&&& ;;---;;;;;",
";;;;;;;;;;;; XXXOOOOO ;;;;;;;;;;",
";;;;-;;;;;;;  ++&&&&& ;;---;;;;;",
";;;;;-;;;;; XX XOOOOX ;;;--;;;;;",
";;;;---;;; ++++      ;;;---;;;;;",
";;;;;;;;; XXX XOOOO X ;;;;;;;;;;",
";;;;---;; -- ++&&&& = ;;---;;;;;",
";;;;;---; $#   .@@. # ;;---;;;;;",
";;;;-;;;;;   ++&&&&  ;;;-;-;;;;;",
";;;;;;;;;;;; XXOO O ;;;;;;;;;;;;",
";;;;;;;;;;;; ++& +& ;;;;-;-;;;;;",
";;;;;;       XX  XO     - -;;;;;",
";;;;; &&&&&* + & + &&&*&&- ;;;;;",
";;;;; &+++**  -*  -*+*+++& ;;;;;",
";;;;; &&&&&**&&-*&&-*&&&---;;;;;",
";;;;;;                   --;;;;;",
";;;;;;;;;;;;;;;;;;;;;;;;---;;;;;",
";;;;;;;;;;;;;;;;;;;;;;;;;;;;;;;;",
";;;;;;;;***++++++++++***;;;;;;;;",
";;;;;;;;;;;;;;;;;;;;;;;;;;;;;;;;"
};
