/* XPM */
static char *result[] = {
/* columns rows colors chars-per-pixel */
"64 64 9 1 ",
"  c black",
". c #181425",
"X c #3A4466",
"o c #A22633",
"O c #5A6988",
"+ c #8B9BB4",
"@ c #C0CBDC",
"# c white",
"$ c None",
/* pixels */
"$$$$$$$$$$$$$$$$$$$$$$$$$$$$$$$$$$$$$$$$$$$$$$$$$$$$$$$$$$$$$$$$",
"$$$$$$$$$$$$$$$$$$$$$$$$$$$$$$$$$$$$$$$$$$$$$$$$$$$$$$$$$$$$$$$$",
"$$$$$$$$$$$$$$$$$$$$$$$$$$$$            $$$$$$$$$$$$$$$$$$$$$$$$",
"$$$$$$$$$$$$$$$$$$$$$$$$$$$$            $$$$$$$$$$$$$$$$$$$$$$$$",
"$$$$$$$$$$$$$$$$$$$$$$$$    XXXXOOOOOOOO  $$$$$$$$$$$$$$$$$$$$$$",
"$$$$$$$$$$$$$$$$$$$$$$$$    XXXXOOOOOOOO  $$$$$$$$$$$$$$$$$$$$$$",
"$$$$$$$$$$$$$$$$$$$$$$  XXXXXXXXOOOOOOOO  $$$$$$$$$$$$$$$$$$$$$$",
"$$$$$$$$$$$$$$$$$$$$$$  XXXXXXXXOOOOOOOO  $$$$$$$$$$$$$$$$$$$$$$",
"$$$$$$$$$$$$$$$$$$$$$$  XXXXXXXXOOOOOOOO  $$$$$$$$$$$$$$$$$$$$$$",
"$$$$$$$$$$$$$$$$$$$$$$  XXXXXXXXOOOOOOOO  $$$$$$$$$$$$$$$$$$$$$$",
"$$$$$$$$$$$$$$$$$$$$  XXXXXXXXXX########  $$$$$$$$$$$$$$$$$$$$$$",
"$$$$$$$$$$$$$$$$$$$$  XXXXXXXXXX########  $$$$$$$$$$$$$$$$$$$$$$",
"$$$$$$$$$$$$$$$$$$$$  XXXXXXXX@@##########  $$$$$$$$$$$$$$$$$$$$",
"$$$$$$$$$$$$$$$$$$$$  XXXXXXXX@@##########  $$$$$$$$$$$$$$$$$$$$",
"$$$$$$$$$$$$$$$$$$$$  XXXXXX@@    ######    $$$$$$$$$$$$$$$$$$$$",
"$$$$$$$$$$$$$$$$$$$$  XXXXXX@@    ######    $$$$$$$$$$$$$$$$$$$$",
"$$$$$$$$$$$$$$$$$$$$  XXXX@@  ##oo      ##oo  $$$$$$$$$$$$$$$$$$",
"$$$$$$$$$$$$$$$$$$$$  XXXX@@  ##oo      ##oo  $$$$$$$$$$$$$$$$$$",
"$$$$$$$$$$$$$$$$$$$$  XXXX@@  oooo  ##  oooo  $$$$$$$$$$$$$$$$$$",
"$$$$$$$$$$$$$$$$$$$$  XXXX@@  oooo  ##  oooo  $$$$$$$$$$$$$$$$$$",
"$$$$$$$$$$$$$$$$$$$$$$    XX@@    ######    $$$$$$$$$$$$$$$$$$$$",
"$$$$$$$$$$$$$$$$$$$$$$    XX@@    ######    $$$$$$$$$$$$$$$$$$$$",
"$$$$$$$$$$$$$$$$$$$$$$$$  XXXX@@##OOOOOO##  $$$$$$$$$$$$$$$$$$$$",
"$$$$$$$$$$$$$$$$$$$$$$$$  XXXX@@##OOOOOO##  $$$$$$$$$$$$$$$$$$$$",
"$$$$$$$$$$$$$$$$$$$$$$$$  XXXXXXOOOOOOOOOO  $$$$$$$$$$$$$$$$$$$$",
"$$$$$$$$$$$$$$$$$$$$$$$$  XXXXXXOOOOOOOOOO  $$$$$$$$$$$$$$$$$$$$",
"$$$$$$$$$$$$$$$$$$$$$$$$  XXXXXXOOOOOOOOOO  $$$$$$$$$$$$$$$$$$$$",
"$$$$$$$$$$$$$$$$$$$$$$$$  XXXXXXOOOOOOOOOO  $$$$$$$$$$$$$$$$$$$$",
"$$$$$$$$$$$$$$$$$$$$$$$$    XXXXOOOOOOOOOO  $$$$$$$$$$$$$$$$$$$$",
"$$$$$$$$$$$$$$$$$$$$$$$$    XXXXOOOOOOOOOO  $$$$$$$$$$$$$$$$$$$$",
"$$$$$$$$$$$$$$$$$$$$$$  XXXX  XXOOOOOOOOXX  $$$$$$$$$$$$$$$$$$$$",
"$$$$$$$$$$$$$$$$$$$$$$  XXXX  XXOOOOOOOOXX  $$$$$$$$$$$$$$$$$$$$",
"$$$$$$$$$$$$$$$$$$$$  XXXXXXXX            $$$$$$$$$$$$$$$$$$$$$$",
"$$$$$$$$$$$$$$$$$$$$  XXXXXXXX            $$$$$$$$$$$$$$$$$$$$$$",
"$$$$$$$$$$$$$$$$$$  XXXXXX  XXOOOOOOOO  XX  $$$$$$$$$$$$$$$$$$$$",
"$$$$$$$$$$$$$$$$$$  XXXXXX  XXOOOOOOOO  XX  $$$$$$$$$$$$$$$$$$$$",
"$$$$$$$$$$$$$$$$$$  ####  XXXXOOOOOOOO  @@  $$$$$$$$$$$$$$$$$$$$",
"$$$$$$$$$$$$$$$$$$  ####  XXXXOOOOOOOO  @@  $$$$$$$$$$$$$$$$$$$$",
"$$$$$$$$$$$$$$$$$$  ##@@      ..++++..  @@  $$$$$$$$$$$$$$$$$$$$",
"$$$$$$$$$$$$$$$$$$  ##@@      ..++++..  @@  $$$$$$$$$$$$$$$$$$$$",
"$$$$$$$$$$$$$$$$$$$$      XXXXOOOOOOOO    $$$$$$$$$$$$$$$$$$$$$$",
"$$$$$$$$$$$$$$$$$$$$      XXXXOOOOOOOO    $$$$$$$$$$$$$$$$$$$$$$",
"$$$$$$$$$$$$$$$$$$$$$$$$  XXXXOOOO  OO  $$$$$$$$$$$$$$$$$$$$$$$$",
"$$$$$$$$$$$$$$$$$$$$$$$$  XXXXOOOO  OO  $$$$$$$$$$$$$$$$$$$$$$$$",
"$$$$$$$$$$$$$$$$$$$$$$$$  XXXXOO  XXOO  $$$$$$$$$$$$$$$$$$$$$$$$",
"$$$$$$$$$$$$$$$$$$$$$$$$  XXXXOO  XXOO  $$$$$$$$$$$$$$$$$$$$$$$$",
"$$$$$$$$$$$$              XXXX    XXOO              $$$$$$$$$$$$",
"$$$$$$$$$$$$              XXXX    XXOO              $$$$$$$$$$$$",
"$$$$$$$$$$  OOOOOOOOOO++  XX  OO  XX  OOOOOO++OOOOOO  $$$$$$$$$$",
"$$$$$$$$$$  OOOOOOOOOO++  XX  OO  XX  OOOOOO++OOOOOO  $$$$$$$$$$",
"$$$$$$$$$$  OOXXXXXX++++    ##++    ##++XX++XXXXXXOO  $$$$$$$$$$",
"$$$$$$$$$$  OOXXXXXX++++    ##++    ##++XX++XXXXXXOO  $$$$$$$$$$",
"$$$$$$$$$$  OOOOOOOOOO++++OOOO##++OOOO##++OOOOOOOOOO  $$$$$$$$$$",
"$$$$$$$$$$  OOOOOOOOOO++++OOOO##++OOOO##++OOOOOOOOOO  $$$$$$$$$$",
"$$$$$$$$$$$$                                        $$$$$$$$$$$$",
"$$$$$$$$$$$$                                        $$$$$$$$$$$$",
"$$$$$$$$$$$$$$$$$$$$$$$$$$$$$$$$$$$$$$$$$$$$$$$$$$$$$$$$$$$$$$$$",
"$$$$$$$$$$$$$$$$$$$$$$$$$$$$$$$$$$$$$$$$$$$$$$$$$$$$$$$$$$$$$$$$",
"$$$$$$$$$$$$$$$$$$$$$$$$$$$$$$$$$$$$$$$$$$$$$$$$$$$$$$$$$$$$$$$$",
"$$$$$$$$$$$$$$$$$$$$$$$$$$$$$$$$$$$$$$$$$$$$$$$$$$$$$$$$$$$$$$$$",
"$$$$$$$$$$$$$$$$++++++XXXXXXXXXXXXXXXXXXXX++++++$$$$$$$$$$$$$$$$",
"$$$$$$$$$$$$$$$$++++++XXXXXXXXXXXXXXXXXXXX++++++$$$$$$$$$$$$$$$$",
"$$$$$$$$$$$$$$$$$$$$$$$$$$$$$$$$$$$$$$$$$$$$$$$$$$$$$$$$$$$$$$$$",
"$$$$$$$$$$$$$$$$$$$$$$$$$$$$$$$$$$$$$$$$$$$$$$$$$$$$$$$$$$$$$$$$"
};
