/* XPM */
static char *result[] = {
/* columns rows colors chars-per-pixel */
"64 64 16 1 ",
"  c black",
". c #0C0A12",
"X c #181425",
"o c #1C2132",
"O c #4F1219",
"+ c #2C3342",
"@ c #3A4466",
"# c #444B58",
"$ c #5D636B",
"% c #7C7C7C",
"& c #A22633",
"* c #5A6988",
"= c #8B9BB4",
"- c #C0CBDC",
"; c white",
": c None",
/* pixels */
"::::::::::::::::::::::::::::::::::::::::::::::::::::::::::::::::",
"::::::::::::::::::::::::::::::::::::::::::::::::::::::::::::::::",
"::::::::::::::::::::::::            ::::::::::::::::::::::::::::",
"::::::::::::::::::::::::            ::::::::::::::::::::::::::::",
"::::::::::::::::::::::  ********@@@@    ::::::::::::::::::::::::",
"::::::::::::::::::::::  ********@@@@    ::::::::::::::::::::::::",
"::::::::::::::::::::::  ++++++++oooooooo  ::::::::::::::::::::::",
"::::::::::::::::::::::  ++++++++oooooooo  ::::::::::::::::::::::",
"::::::::::::::::::::::  ********@@@@@@@@  ::::::::::::::::::::::",
"::::::::::::::::::::::  ********@@@@@@@@  ::::::::::::::::::::::",
"::::::::::::::::::::::  %%%%%%%%oooooooooo  ::::::::::::::::::::",
"::::::::::::::::::::::  %%%%%%%%oooooooooo  ::::::::::::::::::::",
"::::::::::::::::::::  ;;;;;;;;;;--@@@@@@@@  ::::XX::XX::::::::::",
"::::::::::::::::::::  ;;;;;;;;;;--@@@@@@@@  ::::XX::XX::::::::::",
"::::::::::::::::::::    %%%%%%    $$oooooo  ::::XXXXXX::::::::::",
"::::::::::::::::::::    %%%%%%    $$oooooo  ::::XXXXXX::::::::::",
"::::::::::::::::::  &&;;      &&;;  --@@@@  ::::XX::XX::::::::::",
"::::::::::::::::::  &&;;      &&;;  --@@@@  ::::XX::XX::::::::::",
"::::::::::::::::::  OOOO  %%  OOOO  $$oooo  ::::::::::::::::::::",
"::::::::::::::::::  OOOO  %%  OOOO  $$oooo  ::::::::::::::::::::",
"::::::::::::::::::::    ;;;;;;    --@@    ::::::XXXXXX::::::::::",
"::::::::::::::::::::    ;;;;;;    --@@    ::::::XXXXXX::::::::::",
"::::::::::::::::::::  %%++++++%%$$oooo  ::::::::::XXXX::::::::::",
"::::::::::::::::::::  %%++++++%%$$oooo  ::::::::::XXXX::::::::::",
"::::::::::::::::::::  **********@@@@@@  ::::::::XXXXXX::::::::::",
"::::::::::::::::::::  **********@@@@@@  ::::::::XXXXXX::::::::::",
"::::::::::::::::::::  ++++++++++oooooo  ::::::::::::::::::::::::",
"::::::::::::::::::::  ++++++++++oooooo  ::::::::::::::::::::::::",
"::::::::::::::::;;;;;;**;;**;;**;;;;;;  ;;;;;;::::::;;::::::::::",
"::::::::::::::::;;;;;;**;;**;;**;;;;;;  ;;;;;;::::::;;::::::::::",
"::::::::::::::::::;;;;oo;;++;;++;;;;;;oo;;;;::::::::;;::::::::::",
"::::::::::::::::::;;;;oo;;++;;++;;;;;;oo;;;;::::::::;;::::::::::",
"::::::::::::::::;;;;;;    ;;    ;;@@;;@@;;;;;;::;;;;;;::::::::::",
"::::::::::::::::;;;;;;    ;;    ;;@@;;@@;;;;;;::;;;;;;::::::::::",
"::::::::::::::::::::  oo  ++++++++oo  oooooo  ::::::::::::::::::",
"::::::::::::::::::::  oo  ++++++++oo  oooooo  ::::::::::::::::::",
"::::::::::::::XX::::  --  ********@@@@  ;;;;  ::XXXXXX::::::::::",
"::::::::::::::XX::::  --  ********@@@@  ;;;;  ::XXXXXX::::::::::",
"::::::::::::::XXXX::  $$  ..####..      $$%%  ::XXXXXX::::::::::",
"::::::::::::::XXXX::  $$  ..####..      $$%%  ::XXXXXX::::::::::",
"::::::::::::::XX::::::    ********@@@@      ::::::::XX::::::::::",
"::::::::::::::XX::::::    ********@@@@      ::::::::XX::::::::::",
"::::::::::::XXXXXX::::::  ++  ++++oooo  ::::::::::::::::::::::::",
"::::::::::::XXXXXX::::::  ++  ++++oooo  ::::::::::::::::::::::::",
"::::::::::::::::::::::::  **@@  **@@@@  ::::::::::::::::::::::::",
"::::::::::::::::::::::::  **@@  **@@@@  ::::::::::::::::::::::::",
"::::::::::::              ++oo    oooo              ::::::::::::",
"::::::::::::              ++oo    oooo              ::::::::::::",
"::::::::::  ******==******  @@  **  @@  ==**********  ::::::::::",
"::::::::::  ******==******  @@  **  @@  ==**********  ::::::::::",
"::::::::::  **@@@@@@==@@==;;    ==;;    ====@@@@@@**  ::::::::::",
"::::::::::  **@@@@@@==@@==;;    ==;;    ====@@@@@@**  ::::::::::",
"::::::::::  **********==;;****==;;****====**********  ::::::::::",
"::::::::::  **********==;;****==;;****====**********  ::::::::::",
"::::::::::::                                        ::::::::::::",
"::::::::::::                                        ::::::::::::",
"::::::::::::::::::::::::::::::::::::::::::::::::::::::::::::::::",
"::::::::::::::::::::::::::::::::::::::::::::::::::::::::::::::::",
"::::::::::::::::::::::::::::::::::::::::::::::::::::::::::::::::",
"::::::::::::::::::::::::::::::::::::::::::::::::::::::::::::::::",
"::::::::::::::::======@@@@@@@@@@@@@@@@@@@@======::::::::::::::::",
"::::::::::::::::======@@@@@@@@@@@@@@@@@@@@======::::::::::::::::",
"::::::::::::::::::::::::::::::::::::::::::::::::::::::::::::::::",
"::::::::::::::::::::::::::::::::::::::::::::::::::::::::::::::::"
};
