/* XPM */
static char *result[] = {
/* columns rows colors chars-per-pixel */
"32 32 9 1 ",
"  c black",
". c #181425",
"X c #3A4466",
"o c #A22633",
"O c #5A6988",
"+ c #8B9BB4",
"@ c #C0CBDC",
"# c white",
"$ c None",
/* pixels */
"$$$$$$$$$$$$$$$$$$$$$$$$$$$$$$$$",
"$$$$$$$$$$$$$$$$$$$$$$$$$$$$$$$$",
"$$$$$$##$###$$   ###$$$$$$$$$$$$",
"$$$$$$#$$### ###OO#O $$$$$$$$$$$",
"$$$$$$##$#$#X#X#OO#O $$$$$$$$$$$",
"$$$$$$$$$$$ XXXXOOOO $$$$$$$$$$$",
"$$$$$$$$$$ XXXXX#### $$$$$$$$$$$",
"$$$$$$$$$$ XXXX@##### $$$$$$$$$$",
"$$$$$$$$$$ XXX@  ###  $$$$$$$$$$",
"$$$$$$$$$$ XX@ #o   #o $$$$$$$$$",
"$$$$$$$$$$ XX@ oo # oo $$$$$$$$$",
"$$$$$$$$$$$  X@  ###  $$$$$$$$$$",
"$$$$$$$$$$$$ XX@#OOO# $$$$$$$$$$",
"$$$$$$$$$$$$ XXXOOOOO $$$$$$$$$$",
"$$$$$$$$$$$$ XXXOOOOO $$$$$$$$$$",
"$$$$$$$$$$$$  XXOOOOO $$$$$$$$$$",
"$$$$$$$$$$$ XX XOOOOX $$$$$$$$$$",
"$$$$$$$$$$ XXXX      $$$$$$$$$$$",
"$$$$$$$$$ XXX XOOOO X $$$$$$$$$$",
"$$$$$$$$$ ## XXOOOO @ $$$$$$$$$$",
"$$$$$$$$$ #@   .++. @ $$$$$$$$$$",
"$$$$$$$$$$   XXOOOO  $$$$$$$$$$$",
"$$$$$$$$$$$$ XXOO O $$$$$$$$$$$$",
"$$$$$$$$$$$$ XXO XO $$$$$$$$$$$$",
"$$$$$$       XX  XO       $$$$$$",
"$$$$$ OOOOO+ X O X OOO+OOO $$$$$",
"$$$$$ OXXX++  #+  #+X+XXXO $$$$$",
"$$$$$ OOOOO++OO#+OO#+OOOOO $$$$$",
"$$$$$$                    $$$$$$",
"$$$$$$$$$$$$$$$$$$$$$$$$$$$$$$$$",
"$$$$$$+++XXXXXXXXXXXXXX+++$$$$$$",
"$$$$$$$$$$$$$$$$$$$$$$$$$$$$$$$$"
};
