/* XPM */
static char *b86d73781b1f4822d492aac8404a37b4peJRN9AWspwExyYB[] = {
/* columns rows colors chars-per-pixel */
"32 32 14 1 ",
"  c None",
". c black",
"X c #181425",
"o c #1C2132",
"O c #4F1219",
"+ c #2C3342",
"@ c #3A4466",
"# c #5D636B",
"$ c #7C7C7C",
"% c #A22633",
"& c #5A6988",
"* c #8B9BB4",
"= c #C0CBDC",
"- c white",
/* pixels */
"            ......              ",
"            .++++oo..           ",
"           .&&&&@@@@.           ",
"            .++++oooo.          ",
"           .----@@@@@.          ",
"           .$$$$$#oooo.         ",
"          ..---..=@@@.  X X     ",
"          .O$...O$.#oo.  XXX    ",
"         .%%.-.%%.=@@.  X X     ",
"           ..$$$..#o..          ",
"          .-&&&-=@@.    XXX     ",
"           .+++++ooo.     XX    ",
"          .&&&&&@@@.    XXX     ",
"           .+++++oo..           ",
"          .@&&&&@.@@.     X     ",
"            ......oooo.    X    ",
"          .@.&&&&@.@@@. XXX     ",
"           .#.++++oo.$$.        ",
"          .=.X**X...=-. XXX     ",
"            ..++++oo...  XXX    ",
"            .&.&&@@.      X     ",
"             .+o.+oo.           ",
"      .......&@..@@.......      ",
"     .&&&*&&&.o.&.o.*&&&&&.     ",
"     .&@@@*@*-..*-..**@@@&.     ",
"     .&&&&&*-&&*-&&**&&&&&.     ",
"      ....................      ",
"                                ",
"                                ",
"                                ",
"          ***@@@@@@***          ",
"                                "
};
