/* XPM */
static char *bebc2074ef064252c7fa1d38b38de8ca9bvXQZtPwUUdgEDw[] = {
/* columns rows colors chars-per-pixel */
"32 32 4 1 ",
"  c #684641",
". c #9B6E4A",
"X c #B58259",
"o c #A19794",
/* pixels */
"                                ",
" XXXXXXXXXXXXXXXXXXXXXXXXXXXXXX ",
"    XXX.XXXXXXXXXXXXXXXXXXXXXoX ",
" ..................X........... ",
" X............XXXXXXXXXXXXXX... ",
"  oXXXXXXXXXXXXXXXXXXX.......oX ",
" XXXXXXXXXXXXXXXXXXXXXXXXX XXXX ",
"                                ",
"                                ",
"XXXXXXXXXXXXX XXXXXXXXX  XXXXXXX",
".......XXXX  XX......oX  Xo.....",
"XXXXXXXXXXXXX..XXXXXXXX   XXXXXX",
"XXXXXXXX...XXXXXXXX.     XXXXX..",
".....XXXXXXXX........XX  XXoX.X.",
"XX...XXXXXXXXXXXXXXXXXX  .......",
"                                ",
"                                ",
"XXX  XXXXX...XXXXXXXXXXXXXXXXXXX",
"XoX  XoXXX.XXXXXXXXXXXXXXX......",
"XXX  XXXX.............XX.XXXXXXX",
"..X     XXXXXXXXXXXXXXXXXXXX...X",
"XoX  XoXXXXXXXXXXXXXXXXXXX..XXXX",
"XXX  XXXXXX...XXXXXXX........XXX",
"                                ",
"                                ",
"XXXXXXXXXXXXXXXXX  XXXXXXXXXXXXX",
"..XXXXXXXXXXXXXoX  Xo.XXXXXXXXXX",
"XX....X...XXXX...    ....XXXX..X",
"XXXXXXXXXXXXXXXXX  XXXXXXXXXXXXX",
"...XXXXX   XXX.oX  .oXXXXXXXXXX.",
".....XXXXXX XXXXX  XXXXXXXXXXX.X",
"                                "
};
