/* XPM */
static char *d2c3c1e354434df186838764b083e59eBWfHYjAam7NFOppt[] = {
/* columns rows colors chars-per-pixel */
"32 32 8 1 ",
"  c None",
". c black",
"X c #193C3E",
"o c #E43B44",
"O c #63C74D",
"+ c #5A6988",
"@ c #8B9BB4",
"# c #C0CBDC",
/* pixels */
"    ........................    ",
"  ..@@@#####################..  ",
" .@@@@########################. ",
" .@@##########################. ",
".@@##XXXXXXXXXXXXXXXXXXXXXX####.",
".@@#XXXXXXXXXXXXXXXXXXXXXXXX###.",
".@@#XXXXXXXXXXXXXXXXXXXXXXXX###.",
".@@#XXXOOOXOXOXOOOXOOOXXOXXX###.",
".@@#XXXOXXXOXOXXOXXXOXXXOXXX###.",
".@@#XXXOOXXXOXXXOXXXOXXXOXXX###.",
".@@#XXXOXXXOXOXXOXXXOXXXXXXX###.",
".@@#XXXOOOXOXOXOOOXXOXXXOXXX###.",
".@@#XXXXXXXXXXXXXXXXXXXXXXXX###.",
".@@#XXXXXXXXXXXXXXXXXXXXXXXX###.",
".@@##XXXXXXXXXXXXXXXXXXXXXX####.",
" .@@##########################. ",
" .@@@@###################oo###. ",
"  ..@@@#####################..  ",
"    ........................    ",
"              ..                ",
"            ..                  ",
" .............................. ",
".@@############################.",
".@#+#+#+#+#+#+#+##+#+#+##+#+#+#.",
".@#############################.",
".@#+#+#+#+#+##++##+#+#+##+#+#+#.",
".@#############+###############.",
".@#+#+#+#+#+#+#+#########+#+#+#.",
".@##################+##########.",
".@#+#+#+++++#+#+###+++#####+###.",
".@@############################.",
" .............................. "
};
