/* XPM */
static char *_548b03074524729865420375cba2a80AROeM8sR5dmGbXGI[] = {
/* columns rows colors chars-per-pixel */
"64 64 8 1 ",
"  c None",
". c black",
"X c #193C3E",
"o c #E43B44",
"O c #63C74D",
"+ c #5A6988",
"@ c #8B9BB4",
"# c #C0CBDC",
/* pixels */
"        ................................................        ",
"        ................................................        ",
"    ....@@@@@@##########################################....    ",
"    ....@@@@@@##########################################....    ",
"  ..@@@@@@@@################################################..  ",
"  ..@@@@@@@@################################################..  ",
"  ..@@@@####################################################..  ",
"  ..@@@@####################################################..  ",
"..@@@@####XXXXXXXXXXXXXXXXXXXXXXXXXXXXXXXXXXXXXXXXXXXX########..",
"..@@@@####XXXXXXXXXXXXXXXXXXXXXXXXXXXXXXXXXXXXXXXXXXXX########..",
"..@@@@##XXXXXXXXXXXXXXXXXXXXXXXXXXXXXXXXXXXXXXXXXXXXXXXX######..",
"..@@@@##XXXXXXXXXXXXXXXXXXXXXXXXXXXXXXXXXXXXXXXXXXXXXXXX######..",
"..@@@@##XXXXXXXXXXXXXXXXXXXXXXXXXXXXXXXXXXXXXXXXXXXXXXXX######..",
"..@@@@##XXXXXXXXXXXXXXXXXXXXXXXXXXXXXXXXXXXXXXXXXXXXXXXX######..",
"..@@@@##XXXXXXOOOOOOXXOOXXOOXXOOOOOOXXOOOOOOXXXXOOXXXXXX######..",
"..@@@@##XXXXXXOOOOOOXXOOXXOOXXOOOOOOXXOOOOOOXXXXOOXXXXXX######..",
"..@@@@##XXXXXXOOXXXXXXOOXXOOXXXXOOXXXXXXOOXXXXXXOOXXXXXX######..",
"..@@@@##XXXXXXOOXXXXXXOOXXOOXXXXOOXXXXXXOOXXXXXXOOXXXXXX######..",
"..@@@@##XXXXXXOOOOXXXXXXOOXXXXXXOOXXXXXXOOXXXXXXOOXXXXXX######..",
"..@@@@##XXXXXXOOOOXXXXXXOOXXXXXXOOXXXXXXOOXXXXXXOOXXXXXX######..",
"..@@@@##XXXXXXOOXXXXXXOOXXOOXXXXOOXXXXXXOOXXXXXXXXXXXXXX######..",
"..@@@@##XXXXXXOOXXXXXXOOXXOOXXXXOOXXXXXXOOXXXXXXXXXXXXXX######..",
"..@@@@##XXXXXXOOOOOOXXOOXXOOXXOOOOOOXXXXOOXXXXXXOOXXXXXX######..",
"..@@@@##XXXXXXOOOOOOXXOOXXOOXXOOOOOOXXXXOOXXXXXXOOXXXXXX######..",
"..@@@@##XXXXXXXXXXXXXXXXXXXXXXXXXXXXXXXXXXXXXXXXXXXXXXXX######..",
"..@@@@##XXXXXXXXXXXXXXXXXXXXXXXXXXXXXXXXXXXXXXXXXXXXXXXX######..",
"..@@@@##XXXXXXXXXXXXXXXXXXXXXXXXXXXXXXXXXXXXXXXXXXXXXXXX######..",
"..@@@@##XXXXXXXXXXXXXXXXXXXXXXXXXXXXXXXXXXXXXXXXXXXXXXXX######..",
"..@@@@####XXXXXXXXXXXXXXXXXXXXXXXXXXXXXXXXXXXXXXXXXXXX########..",
"..@@@@####XXXXXXXXXXXXXXXXXXXXXXXXXXXXXXXXXXXXXXXXXXXX########..",
"  ..@@@@####################################################..  ",
"  ..@@@@####################################################..  ",
"  ..@@@@@@@@######################################oooo######..  ",
"  ..@@@@@@@@######################################oooo######..  ",
"    ....@@@@@@##########################################....    ",
"    ....@@@@@@##########################################....    ",
"        ................................................        ",
"        ................................................        ",
"                            ....                                ",
"                            ....                                ",
"                        ....                                    ",
"                        ....                                    ",
"  ............................................................  ",
"  ............................................................  ",
"..@@@@########################################################..",
"..@@@@########################################################..",
"..@@##++##++##++##++##++##++##++####++##++##++####++##++##++##..",
"..@@##++##++##++##++##++##++##++####++##++##++####++##++##++##..",
"..@@##########################################################..",
"..@@##########################################################..",
"..@@##++##++##++##++##++####++++####++##++##++####++##++##++##..",
"..@@##++##++##++##++##++####++++####++##++##++####++##++##++##..",
"..@@##########################++##############################..",
"..@@##########################++##############################..",
"..@@##++##++##++##++##++##++##++##################++##++##++##..",
"..@@##++##++##++##++##++##++##++##################++##++##++##..",
"..@@####################################++####################..",
"..@@####################################++####################..",
"..@@##++##++##++++++++++##++##++######++++++##########++######..",
"..@@##++##++##++++++++++##++##++######++++++##########++######..",
"..@@@@########################################################..",
"..@@@@########################################################..",
"  ............................................................  ",
"  ............................................................  "
};
