/* XPM */
static char *_57126b777734386bd01a60eeaa9b01bUD1dFaKo1gtPsZD2[] = {
/* columns rows colors chars-per-pixel */
"32 32 5 1 ",
"  c None",
". c black",
"X c #5A6988",
"o c #8B9BB4",
"O c #C0CBDC",
/* pixels */
"    ........................    ",
"  ..oooOOOOOOOOOOOOOOOOOOOOO..  ",
" .ooooOOOOOOOOOOOOOOOOOOOOOOOO. ",
" .ooOOOOOOOOOOOOOOOOOOOOOOOOOO. ",
".ooOO......................OOOO.",
".ooO........................OOO.",
".ooO........................OOO.",
".ooO........................OOO.",
".ooO........................OOO.",
".ooO........................OOO.",
".ooO........................OOO.",
".ooO........................OOO.",
".ooO........................OOO.",
".ooO........................OOO.",
".ooOO......................OOOO.",
" .ooOOOOOOOOOOOOOOOOOOOOOOOOOO. ",
" .ooooOOOOOOOOOOOOOOOOOOO..OOO. ",
"  ..oooOOOOOOOOOOOOOOOOOOOOO..  ",
"    ........................    ",
"              ..                ",
"            ..                  ",
" .............................. ",
".ooOOOOOOOOOOOOOOOOOOOOOOOOOOOO.",
".oOXOXOXOXOXOXOXOOXOXOXOOXOXOXO.",
".oOOOOOOOOOOOOOOOOOOOOOOOOOOOOO.",
".oOXOXOXOXOXOOXXOOXOXOXOOXOXOXO.",
".oOOOOOOOOOOOOOXOOOOOOOOOOOOOOO.",
".oOXOXOXOXOXOXOXOOOOOOOOOXOXOXO.",
".oOOOOOOOOOOOOOOOOOOXOOOOOOOOOO.",
".oOXOXOXXXXXOXOXOOOXXXOOOOOXOOO.",
".ooOOOOOOOOOOOOOOOOOOOOOOOOOOOO.",
" .............................. "
};
