/* XPM */
static char *_77c7ab8a1e148cdb167f79ddb3fc04b4tkFtOjcNSbkyd4E[] = {
/* columns rows colors chars-per-pixel */
"64 64 6 1 ",
"  c #262B44",
". c #265C42",
"X c #3A4466",
"o c #3E8948",
"O c #5A6988",
"+ c #8B9BB4",
/* pixels */
"XX++++++++++++XX++  XX++++++++++++++XXXX  XX++++++++XXXX++++++XX",
"XX++++++++++++XX++  XX++++++++++++++XXXX  XX++++++++XXXX++++++XX",
"XXXX++++++OOOOOO++  XXXX++++++++++++++XX  XXXX++++++++++++++++++",
"XXXX++++++OOOOOO++  XXXX++++++++++++++XX  XXXX++++++++++++++++++",
"XXXXOOOOOOOOOO++++  XXXXXXOOOOXXOOOO++++      OOOO++++++++OO++++",
"XXXXOOOOOOOOOO++++  XXXXXXOOOOXXOOOO++++      OOOO++++++++OO++++",
"XXXXOOOOOOOOOO++++  XXXXOOOOOOOOXXXXXX++    XXOOOOOOOOOOOOOO++++",
"XXXXOOOOOOOOOO++++  XXXXOOOOOOOOXXXXXX++    XXOOOOOOOOOOOOOO++++",
"XXXXOOOOOOOOOO++..  OOOOXXXXXXXXXXXXXXXX  XXXXOO  OOOOOOOOOO++XX",
"XXXXOOOOOOOOOO++..  OOOOXXXXXXXXXXXXXXXX  XXXXOO  OOOOOOOOOO++XX",
"XXXXOOOOXXOOOO++....                      XXXXOOOOOOOOOOOOOO++XX",
"XXXXOOOOXXOOOO++....                      XXXXOOOOOOOOOOOOOO++XX",
"XXXXXXOOOOOOOO++oooo  ++++++++++++++++++  XXXXXX  XXOOOOOO  ++XX",
"XXXXXXOOOOOOOO++oooo  ++++++++++++++++++  XXXXXX  XXOOOOOO  ++XX",
"XXXXXXOOOOOOOOoooo  XXXX++++++++++++++++      XXXXXXOOXXOOOO++++",
"XXXXXXOOOOOOOOoooo  XXXX++++++++++++++++      XXXXXXOOXXOOOO++++",
"XXXXOOOOOOOOOOoo++  XXXXOOXXOOOOOOOO++++    XXXXOOOOOOXXOOOO  ++",
"XXXXOOOOOOOOOOoo++  XXXXOOXXOOOOOOOO++++    XXXXOOOOOOXXOOOO  ++",
"XXXXXXXXOOOOOO++++  XXXXXXXXXXOO    ++++  XXXXOOOOOOOOOOOOOO++++",
"XXXXXXXXOOOOOO++++  XXXXXXXXXXOO    ++++  XXXXOOOOOOOOOOOOOO++++",
"XXXXXXOOOOOOOO++++    XXOOOOXXOOOO  ++++  XXXXOOOOXXXXOOOOXX++++",
"XXXXXXOOOOOOOO++++    XXOOOOXXOOOO  ++++  XXXXOOOOXXXXOOOOXX++++",
"XXXXOOOOOOOOOO++++    XXOOOOOOOOOOOO++oo    XXXXXXXXXXXXXXXXXX++",
"XXXXOOOOOOOOOO++++    XXOOOOOOOOOOOO++oo    XXXXXXXXXXXXXXXXXX++",
"XXXXOOOOOOOOOO++++  XXXXOOOOOOOOOO++oo....  XXXXXX    XXXXXXXXXX",
"XXXXOOOOOOOOOO++++  XXXXOOOOOOOOOO++oo....  XXXXXX    XXXXXXXXXX",
"XXXXOOOOOOOOOO++++  XXXXOOOOXX++XX++++XXoo                      ",
"XXXXOOOOOOOOOO++++  XXXXOOOOXX++XX++++XXoo                      ",
"XXXXOOOOOOOOOO++++  XXXXOOOOOOXXXX++++XX  XXXX++OOXX++++++++++++",
"XXXXOOOOOOOOOO++++  XXXXOOOOOOXXXX++++XX  XXXX++OOXX++++++++++++",
"XXXXOOXXOOOOOO++++  XXXXOOXXOOOOOOOO++++  XXXXOOOOXXXX++++++++++",
"XXXXOOXXOOOOOO++++  XXXXOOXXOOOOOOOO++++  XXXXOOOOXXXX++++++++++",
"XXXXOOOOOOOOOO++++  XXXXXXOOOOOOOOOO++++    XXXXXXXXOOOOOOOO++++",
"XXXXOOOOOOOOOO++++  XXXXXXOOOOOOOOOO++++    XXXXXXXXOOOOOOOO++++",
"XXXXOOOOXXOOOO++++  XXXXXXXXOOOOOOOO++++    XXXXOOOOOO  OOOO++++",
"XXXXOOOOXXOOOO++++  XXXXXXXXOOOOOOOO++++    XXXXOOOOOO  OOOO++++",
"XXXXOOXXXXOOOO++++  XXOOXXXXXXOOOOXXXX++  XX  XXOOOOOOOOOOOO++++",
"XXXXOOXXXXOOOO++++  XXOOXXXXXXOOOOXXXX++  XX  XXOOOOOOOOOOOO++++",
"XXXXXXXXXXXXXXXXooooXXOOOOXXXXXXXX  XX++  XXXXXXXXXXXXXXXXXXXX++",
"XXXXXXXXXXXXXXXXooooXXOOOOXXXXXXXX  XX++  XXXXXXXXXXXXXXXXXXXX++",
"XXXXXXXXXXXXXXoo..      XXXXXXXXXX    XX  XXXXXXXXXXXXooooXXXXXX",
"XXXXXXXXXXXXXXoo..      XXXXXXXXXX    XX  XXXXXXXXXXXXooooXXXXXX",
"                  oo      oo..                      ....        ",
"                  oo      oo..                      ....        ",
"XX++++++OOXXOO++++++++++++..oo    ++++++++++++++++++++oo++++XXXX",
"XX++++++OOXXOO++++++++++++..oo    ++++++++++++++++++++oo++++XXXX",
"XXXX++++++++++++++++++++++    oo++++++++++++XX++++++oo++++++++XX",
"XXXX++++++++++++++++++++++    oo++++++++++++XX++++++oo++++++++XX",
"XXXXOOOO++++++XXOOOOOO++++    XXOOOO++OOOOOOOOOOOOOOooOO++++++++",
"XXXXOOOO++++++XXOOOOOO++++    XXOOOO++OOOOOOOOOOOOOOooOO++++++++",
"XXXXXXOO++OOOOOOOOOOOO++++  XXXXOOOOOO++++++OOXXOOOOOOooOOOO++++",
"XXXXXXOO++OOOOOOOOOOOO++++  XXXXOOOOOO++++++OOXXOOOOOOooOOOO++++",
"XXXXOOOO++OOOOOOXX++++++OO  XXXXOOOOOO++++XXOOOOOOOOXXOOOOOO++++",
"XXXXOOOO++OOOOOOXX++++++OO  XXXXOOOOOO++++XXOOOOOOOOXXOOOOOO++++",
"XXXXXXOOOOOOXXXXOO++++++XX  XXXXOOOOOOOO++OO++OOOOOOOOOOOOXX++++",
"XXXXXXOOOOOOXXXXOO++++++XX  XXXXOOOOOOOO++OO++OOOOOOOOOOOOXX++++",
"  XXXXOOOOOO++OOOOOO++OOXX  XXXXXXOOOOXXOOOOOOOOOOOOOOXXXXOO++++",
"  XXXXOOOOOO++OOOOOO++OOXX  XXXXXXOOOOXXOOOOOOOOOOOOOOXXXXOO++++",
"XX  XXXXXXOOOOOOXXOOOO++++  ++XXXXOOXXXXOOOOOOOOOOOOXXXXOOOO++++",
"XX  XXXXXXOOOOOOXXOOOO++++  ++XXXXOOXXXXOOOOOOOOOOOOXXXXOOOO++++",
"      XXXXXXXXXXXXXXXXXX++  OO++++XXXXXXXXXXXXXXXXXXXXXXXXXXXX++",
"      XXXXXXXXXXXXXXXXXX++  OO++++XXXXXXXXXXXXXXXXXXXXXXXXXXXX++",
"        XXXXXXXXXXXXXXXXXX  OOOO++++XXXXXXXXXXXXXXXXXXXXXXXXXXXX",
"        XXXXXXXXXXXXXXXXXX  OOOO++++XXXXXXXXXXXXXXXXXXXXXXXXXXXX"
};
