/* XPM */
static char *_0b89c7cf91a4403906befa5a600e408e7lWhAF6PANZPj0a[] = {
/* columns rows colors chars-per-pixel */
"64 64 5 1 ",
"  c None",
". c black",
"X c #5A6988",
"o c #8B9BB4",
"O c #C0CBDC",
/* pixels */
"        ................................................        ",
"        ................................................        ",
"    ....ooooooOOOOOOOOOOOOOOOOOOOOOOOOOOOOOOOOOOOOOOOOOO....    ",
"    ....ooooooOOOOOOOOOOOOOOOOOOOOOOOOOOOOOOOOOOOOOOOOOO....    ",
"  ..ooooooooOOOOOOOOOOOOOOOOOOOOOOOOOOOOOOOOOOOOOOOOOOOOOOOO..  ",
"  ..ooooooooOOOOOOOOOOOOOOOOOOOOOOOOOOOOOOOOOOOOOOOOOOOOOOOO..  ",
"  ..ooooOOOOOOOOOOOOOOOOOOOOOOOOOOOOOOOOOOOOOOOOOOOOOOOOOOOO..  ",
"  ..ooooOOOOOOOOOOOOOOOOOOOOOOOOOOOOOOOOOOOOOOOOOOOOOOOOOOOO..  ",
"..ooooOOOO............................................OOOOOOOO..",
"..ooooOOOO............................................OOOOOOOO..",
"..ooooOO................................................OOOOOO..",
"..ooooOO................................................OOOOOO..",
"..ooooOO................................................OOOOOO..",
"..ooooOO................................................OOOOOO..",
"..ooooOO................................................OOOOOO..",
"..ooooOO................................................OOOOOO..",
"..ooooOO................................................OOOOOO..",
"..ooooOO................................................OOOOOO..",
"..ooooOO................................................OOOOOO..",
"..ooooOO................................................OOOOOO..",
"..ooooOO................................................OOOOOO..",
"..ooooOO................................................OOOOOO..",
"..ooooOO................................................OOOOOO..",
"..ooooOO................................................OOOOOO..",
"..ooooOO................................................OOOOOO..",
"..ooooOO................................................OOOOOO..",
"..ooooOO................................................OOOOOO..",
"..ooooOO................................................OOOOOO..",
"..ooooOOOO............................................OOOOOOOO..",
"..ooooOOOO............................................OOOOOOOO..",
"  ..ooooOOOOOOOOOOOOOOOOOOOOOOOOOOOOOOOOOOOOOOOOOOOOOOOOOOOO..  ",
"  ..ooooOOOOOOOOOOOOOOOOOOOOOOOOOOOOOOOOOOOOOOOOOOOOOOOOOOOO..  ",
"  ..ooooooooOOOOOOOOOOOOOOOOOOOOOOOOOOOOOOOOOOOOOO....OOOOOO..  ",
"  ..ooooooooOOOOOOOOOOOOOOOOOOOOOOOOOOOOOOOOOOOOOO....OOOOOO..  ",
"    ....ooooooOOOOOOOOOOOOOOOOOOOOOOOOOOOOOOOOOOOOOOOOOO....    ",
"    ....ooooooOOOOOOOOOOOOOOOOOOOOOOOOOOOOOOOOOOOOOOOOOO....    ",
"        ................................................        ",
"        ................................................        ",
"                            ....                                ",
"                            ....                                ",
"                        ....                                    ",
"                        ....                                    ",
"  ............................................................  ",
"  ............................................................  ",
"..ooooOOOOOOOOOOOOOOOOOOOOOOOOOOOOOOOOOOOOOOOOOOOOOOOOOOOOOOOO..",
"..ooooOOOOOOOOOOOOOOOOOOOOOOOOOOOOOOOOOOOOOOOOOOOOOOOOOOOOOOOO..",
"..ooOOXXOOXXOOXXOOXXOOXXOOXXOOXXOOOOXXOOXXOOXXOOOOXXOOXXOOXXOO..",
"..ooOOXXOOXXOOXXOOXXOOXXOOXXOOXXOOOOXXOOXXOOXXOOOOXXOOXXOOXXOO..",
"..ooOOOOOOOOOOOOOOOOOOOOOOOOOOOOOOOOOOOOOOOOOOOOOOOOOOOOOOOOOO..",
"..ooOOOOOOOOOOOOOOOOOOOOOOOOOOOOOOOOOOOOOOOOOOOOOOOOOOOOOOOOOO..",
"..ooOOXXOOXXOOXXOOXXOOXXOOOOXXXXOOOOXXOOXXOOXXOOOOXXOOXXOOXXOO..",
"..ooOOXXOOXXOOXXOOXXOOXXOOOOXXXXOOOOXXOOXXOOXXOOOOXXOOXXOOXXOO..",
"..ooOOOOOOOOOOOOOOOOOOOOOOOOOOXXOOOOOOOOOOOOOOOOOOOOOOOOOOOOOO..",
"..ooOOOOOOOOOOOOOOOOOOOOOOOOOOXXOOOOOOOOOOOOOOOOOOOOOOOOOOOOOO..",
"..ooOOXXOOXXOOXXOOXXOOXXOOXXOOXXOOOOOOOOOOOOOOOOOOXXOOXXOOXXOO..",
"..ooOOXXOOXXOOXXOOXXOOXXOOXXOOXXOOOOOOOOOOOOOOOOOOXXOOXXOOXXOO..",
"..ooOOOOOOOOOOOOOOOOOOOOOOOOOOOOOOOOOOOOXXOOOOOOOOOOOOOOOOOOOO..",
"..ooOOOOOOOOOOOOOOOOOOOOOOOOOOOOOOOOOOOOXXOOOOOOOOOOOOOOOOOOOO..",
"..ooOOXXOOXXOOXXXXXXXXXXOOXXOOXXOOOOOOXXXXXXOOOOOOOOOOXXOOOOOO..",
"..ooOOXXOOXXOOXXXXXXXXXXOOXXOOXXOOOOOOXXXXXXOOOOOOOOOOXXOOOOOO..",
"..ooooOOOOOOOOOOOOOOOOOOOOOOOOOOOOOOOOOOOOOOOOOOOOOOOOOOOOOOOO..",
"..ooooOOOOOOOOOOOOOOOOOOOOOOOOOOOOOOOOOOOOOOOOOOOOOOOOOOOOOOOO..",
"  ............................................................  ",
"  ............................................................  "
};
