/* XPM */
static char *_10e3407e01d4e62fcf68d41c61f5716UPQzTcIciEcrD2Ht[] = {
/* columns rows colors chars-per-pixel */
"32 32 17 1 ",
"  c None",
". c black",
"X c #3E2731",
"o c #5A3A48",
"O c #68386C",
"+ c #3A4466",
"@ c #63C74D",
"# c #D19D7A",
"$ c #124E89",
"% c #4C19CF",
"& c #7950DF",
"* c #A83581",
"= c #E46FBD",
"- c #0099DB",
"; c #8B9BB4",
": c #E8B796",
"> c white",
/* pixels */
"                                ",
"                                ",
"            ......              ",
"           .ooooXX..            ",
"           .ooooXXXX.           ",
"           .ooooXXXX.           ",
"           .::::XXXXX.          ",
"          .:::::#XXXX.          ",
"          ..:::..#XXX.          ",
"         ..>....>.#XX.          ",
"         ....:....#XX.          ",
"          ..:::..#X..           ",
"          .:ooo:#XX.            ",
"          .oooooXXX.            ",
"          .oooooXXX.            ",
"          .oooooXX..            ",
"          .XooooX.%%.           ",
"           ......%%%%.          ",
"          .%.&&&&%.%%%.         ",
"          .#.&&&&%%.::.         ",
"          .#.O;;OXX.#:.         ",
"           ..----$$...          ",
"            .-.--$$.            ",
"            .-$.-$$.            ",
"      .......-$..$$.......      ",
"     .===@===.$.=.$.@=====.     ",
"     .=***@*@>..@>..@@***=.     ",
"     .=====@>==@>==@@=====.     ",
"      ....................      ",
"                                ",
"      ;;;++++++++++++++;;;      ",
"                                "
};
