/* XPM */
static char *_fa539bc10b643cce15a2510472c909cQmYgs4PedhZBOqvu[] = {
/* columns rows colors chars-per-pixel */
"64 64 17 1 ",
"  c None",
". c black",
"X c #3E2731",
"o c #5A3A48",
"O c #68386C",
"+ c #3A4466",
"@ c #63C74D",
"# c #D19D7A",
"$ c #124E89",
"% c #4C19CF",
"& c #7950DF",
"* c #A83581",
"= c #E46FBD",
"- c #0099DB",
"; c #8B9BB4",
": c #E8B796",
"> c white",
/* pixels */
"                                                                ",
"                                                                ",
"                                                                ",
"                                                                ",
"                            ............                        ",
"                            ............                        ",
"                        ....XXXXoooooooo..                      ",
"                        ....XXXXoooooooo..                      ",
"                      ..XXXXXXXXoooooooo..                      ",
"                      ..XXXXXXXXoooooooo..                      ",
"                      ..XXXXXXXXoooooooo..                      ",
"                      ..XXXXXXXXoooooooo..                      ",
"                    ..XXXXXXXXXX::::::::..                      ",
"                    ..XXXXXXXXXX::::::::..                      ",
"                    ..XXXXXXXX##::::::::::..                    ",
"                    ..XXXXXXXX##::::::::::..                    ",
"                    ..XXXXXX##....::::::....                    ",
"                    ..XXXXXX##....::::::....                    ",
"                    ..XXXX##..>>........>>....                  ",
"                    ..XXXX##..>>........>>....                  ",
"                    ..XXXX##........::........                  ",
"                    ..XXXX##........::........                  ",
"                      ....XX##....::::::....                    ",
"                      ....XX##....::::::....                    ",
"                        ..XXXX##::oooooo::..                    ",
"                        ..XXXX##::oooooo::..                    ",
"                        ..XXXXXXoooooooooo..                    ",
"                        ..XXXXXXoooooooooo..                    ",
"                        ..XXXXXXoooooooooo..                    ",
"                        ..XXXXXXoooooooooo..                    ",
"                        ....XXXXoooooooooo..                    ",
"                        ....XXXXoooooooooo..                    ",
"                      ..%%%%..XXooooooooXX..                    ",
"                      ..%%%%..XXooooooooXX..                    ",
"                    ..%%%%%%%%............                      ",
"                    ..%%%%%%%%............                      ",
"                  ..%%%%%%..%%&&&&&&&&..%%..                    ",
"                  ..%%%%%%..%%&&&&&&&&..%%..                    ",
"                  ..::::..%%%%&&&&&&&&..##..                    ",
"                  ..::::..%%%%&&&&&&&&..##..                    ",
"                  ..::##..XXXXOO;;;;OO..##..                    ",
"                  ..::##..XXXXOO;;;;OO..##..                    ",
"                    ......$$$$--------....                      ",
"                    ......$$$$--------....                      ",
"                        ..$$$$----..--..                        ",
"                        ..$$$$----..--..                        ",
"                        ..$$$$--..$$--..                        ",
"                        ..$$$$--..$$--..                        ",
"            ..............$$$$....$$--..............            ",
"            ..............$$$$....$$--..............            ",
"          ..==========@@..$$..==..$$..======@@======..          ",
"          ..==========@@..$$..==..$$..======@@======..          ",
"          ..==******@@@@....>>@@....>>@@**@@******==..          ",
"          ..==******@@@@....>>@@....>>@@**@@******==..          ",
"          ..==========@@@@====>>@@====>>@@==========..          ",
"          ..==========@@@@====>>@@====>>@@==========..          ",
"            ........................................            ",
"            ........................................            ",
"                                                                ",
"                                                                ",
"            ;;;;;;++++++++++++++++++++++++++++;;;;;;            ",
"            ;;;;;;++++++++++++++++++++++++++++;;;;;;            ",
"                                                                ",
"                                                                "
};
