/* XPM */
static char *_d455573c9fc4d00c91694a06e641ac8Kc3VmGh677276GLD[] = {
/* columns rows colors chars-per-pixel */
"32 32 17 1 ",
"  c None",
". c black",
"X c #3E2731",
"o c #5A3A48",
"O c #68386C",
"+ c #3A4466",
"@ c #63C74D",
"# c #D19D7A",
"$ c #124E89",
"% c #4C19CF",
"& c #7950DF",
"* c #A83581",
"= c #E46FBD",
"- c #0099DB",
"; c #8B9BB4",
": c #E8B796",
"> c white",
/* pixels */
"                                ",
"                                ",
"              ......            ",
"            ..XXoooo.           ",
"           .XXXXoooo.           ",
"           .XXXXoooo.           ",
"          .XXXXX::::.           ",
"          .XXXX#:::::.          ",
"          .XXX#..:::..          ",
"          .XX#.>....>..         ",
"          .XX#....:....         ",
"           ..X#..:::..          ",
"            .XX#:ooo:.          ",
"            .XXXooooo.          ",
"            .XXXooooo.          ",
"            ..XXooooo.          ",
"           .%%.XooooX.          ",
"          .%%%%......           ",
"         .%%%.%&&&&.%.          ",
"         .::.%%&&&&.#.          ",
"         .:#.XXO;;O.#.          ",
"          ...$$----..           ",
"            .$$--.-.            ",
"            .$$-.$-.            ",
"      .......$$..$-.......      ",
"     .=====@.$.=.$.===@===.     ",
"     .=***@@..>@..>@*@***=.     ",
"     .=====@@==>@==>@=====.     ",
"      ....................      ",
"                                ",
"      ;;;++++++++++++++;;;      ",
"                                "
};
