/* XPM */
static char *result[] = {
/* columns rows colors chars-per-pixel */
"64 64 9 1 ",
"  c black",
". c #181425",
"X c #3A4466",
"o c #A22633",
"O c #5A6988",
"+ c #8B9BB4",
"@ c #C0CBDC",
"# c white",
"$ c None",
/* pixels */
"$$$$$$$$$$$$$$$$$$$$$$$$$$$$$$$$$$$$$$$$$$$$$$$$$$$$$$$$$$$$$$$$",
"$$$$$$$$$$$$$$$$$$$$$$$$$$$$$$$$$$$$$$$$$$$$$$$$$$$$$$$$$$$$$$$$",
"$$$$$$$$$$$$$$$$$$$$$$$$$$$$$$$$$$$$$$$$$$$$$$$$$$$$$$$$$$$$$$$$",
"$$$$$$$$$$$$$$$$$$$$$$$$$$$$$$$$$$$$$$$$$$$$$$$$$$$$$$$$$$$$$$$$",
"$$$$$$$$$$$$####$$######          ######$$$$$$$$$$$$$$$$$$$$$$$$",
"$$$$$$$$$$$$####$$######          ######$$$$$$$$$$$$$$$$$$$$$$$$",
"$$$$$$$$$$$$##$$$$######OO######XXXX##  $$$$$$$$$$$$$$$$$$$$$$$$",
"$$$$$$$$$$$$##$$$$######OO######XXXX##  $$$$$$$$$$$$$$$$$$$$$$$$",
"$$$$$$$$$$$$####$$##$$##OO##OO##XXXX##XX  $$$$$$$$$$$$$$$$$$$$$$",
"$$$$$$$$$$$$####$$##$$##OO##OO##XXXX##XX  $$$$$$$$$$$$$$$$$$$$$$",
"$$$$$$$$$$$$$$$$$$$$$$  OOOOOOOOXXXXXXXX  $$$$$$$$$$$$$$$$$$$$$$",
"$$$$$$$$$$$$$$$$$$$$$$  OOOOOOOOXXXXXXXX  $$$$$$$$$$$$$$$$$$$$$$",
"$$$$$$$$$$$$$$$$$$$$$$  ########XXXXXXXXXX  $$$$$$$$$$$$$$$$$$$$",
"$$$$$$$$$$$$$$$$$$$$$$  ########XXXXXXXXXX  $$$$$$$$$$$$$$$$$$$$",
"$$$$$$$$$$$$$$$$$$$$  ##########@@XXXXXXXX  $$$$$$$$$$$$$$$$$$$$",
"$$$$$$$$$$$$$$$$$$$$  ##########@@XXXXXXXX  $$$$$$$$$$$$$$$$$$$$",
"$$$$$$$$$$$$$$$$$$$$    ######    @@XXXXXX  $$$$$$$$$$$$$$$$$$$$",
"$$$$$$$$$$$$$$$$$$$$    ######    @@XXXXXX  $$$$$$$$$$$$$$$$$$$$",
"$$$$$$$$$$$$$$$$$$  oo##      oo##  @@XXXX  $$$$$$$$$$$$$$$$$$$$",
"$$$$$$$$$$$$$$$$$$  oo##      oo##  @@XXXX  $$$$$$$$$$$$$$$$$$$$",
"$$$$$$$$$$$$$$$$$$  oooo  ##  oooo  @@XXXX  $$$$$$$$$$$$$$$$$$$$",
"$$$$$$$$$$$$$$$$$$  oooo  ##  oooo  @@XXXX  $$$$$$$$$$$$$$$$$$$$",
"$$$$$$$$$$$$$$$$$$$$    ######    @@XX    $$$$$$$$$$$$$$$$$$$$$$",
"$$$$$$$$$$$$$$$$$$$$    ######    @@XX    $$$$$$$$$$$$$$$$$$$$$$",
"$$$$$$$$$$$$$$$$$$$$  ##OOOOOO##@@XXXX  $$$$$$$$$$$$$$$$$$$$$$$$",
"$$$$$$$$$$$$$$$$$$$$  ##OOOOOO##@@XXXX  $$$$$$$$$$$$$$$$$$$$$$$$",
"$$$$$$$$$$$$$$$$$$$$  OOOOOOOOOOXXXXXX  $$$$$$$$$$$$$$$$$$$$$$$$",
"$$$$$$$$$$$$$$$$$$$$  OOOOOOOOOOXXXXXX  $$$$$$$$$$$$$$$$$$$$$$$$",
"$$$$$$$$$$$$$$$$$$$$  OOOOOOOOOOXXXXXX  $$$$$$$$$$$$$$$$$$$$$$$$",
"$$$$$$$$$$$$$$$$$$$$  OOOOOOOOOOXXXXXX  $$$$$$$$$$$$$$$$$$$$$$$$",
"$$$$$$$$$$$$$$$$$$$$  OOOOOOOOOOXXXX    $$$$$$$$$$$$$$$$$$$$$$$$",
"$$$$$$$$$$$$$$$$$$$$  OOOOOOOOOOXXXX    $$$$$$$$$$$$$$$$$$$$$$$$",
"$$$$$$$$$$$$$$$$$$$$  XXOOOOOOOOXX  XXXX  $$$$$$$$$$$$$$$$$$$$$$",
"$$$$$$$$$$$$$$$$$$$$  XXOOOOOOOOXX  XXXX  $$$$$$$$$$$$$$$$$$$$$$",
"$$$$$$$$$$$$$$$$$$$$$$            XXXXXXXX  $$$$$$$$$$$$$$$$$$$$",
"$$$$$$$$$$$$$$$$$$$$$$            XXXXXXXX  $$$$$$$$$$$$$$$$$$$$",
"$$$$$$$$$$$$$$$$$$$$  XX  OOOOOOOOXX  XXXXXX  $$$$$$$$$$$$$$$$$$",
"$$$$$$$$$$$$$$$$$$$$  XX  OOOOOOOOXX  XXXXXX  $$$$$$$$$$$$$$$$$$",
"$$$$$$$$$$$$$$$$$$$$  @@  OOOOOOOOXXXX  ####  $$$$$$$$$$$$$$$$$$",
"$$$$$$$$$$$$$$$$$$$$  @@  OOOOOOOOXXXX  ####  $$$$$$$$$$$$$$$$$$",
"$$$$$$$$$$$$$$$$$$$$  @@  ..++++..      @@##  $$$$$$$$$$$$$$$$$$",
"$$$$$$$$$$$$$$$$$$$$  @@  ..++++..      @@##  $$$$$$$$$$$$$$$$$$",
"$$$$$$$$$$$$$$$$$$$$$$    OOOOOOOOXXXX      $$$$$$$$$$$$$$$$$$$$",
"$$$$$$$$$$$$$$$$$$$$$$    OOOOOOOOXXXX      $$$$$$$$$$$$$$$$$$$$",
"$$$$$$$$$$$$$$$$$$$$$$$$  OO  OOOOXXXX  $$$$$$$$$$$$$$$$$$$$$$$$",
"$$$$$$$$$$$$$$$$$$$$$$$$  OO  OOOOXXXX  $$$$$$$$$$$$$$$$$$$$$$$$",
"$$$$$$$$$$$$$$$$$$$$$$$$  OOXX  OOXXXX  $$$$$$$$$$$$$$$$$$$$$$$$",
"$$$$$$$$$$$$$$$$$$$$$$$$  OOXX  OOXXXX  $$$$$$$$$$$$$$$$$$$$$$$$",
"$$$$$$$$$$$$              OOXX    XXXX              $$$$$$$$$$$$",
"$$$$$$$$$$$$              OOXX    XXXX              $$$$$$$$$$$$",
"$$$$$$$$$$  OOOOOO++OOOOOO  XX  OO  XX  ++OOOOOOOOOO  $$$$$$$$$$",
"$$$$$$$$$$  OOOOOO++OOOOOO  XX  OO  XX  ++OOOOOOOOOO  $$$$$$$$$$",
"$$$$$$$$$$  OOXXXXXX++XX++##    ++##    ++++XXXXXXOO  $$$$$$$$$$",
"$$$$$$$$$$  OOXXXXXX++XX++##    ++##    ++++XXXXXXOO  $$$$$$$$$$",
"$$$$$$$$$$  OOOOOOOOOO++##OOOO++##OOOO++++OOOOOOOOOO  $$$$$$$$$$",
"$$$$$$$$$$  OOOOOOOOOO++##OOOO++##OOOO++++OOOOOOOOOO  $$$$$$$$$$",
"$$$$$$$$$$$$                                        $$$$$$$$$$$$",
"$$$$$$$$$$$$                                        $$$$$$$$$$$$",
"$$$$$$$$$$$$$$$$$$$$$$$$$$$$$$$$$$$$$$$$$$$$$$$$$$$$$$$$$$$$$$$$",
"$$$$$$$$$$$$$$$$$$$$$$$$$$$$$$$$$$$$$$$$$$$$$$$$$$$$$$$$$$$$$$$$",
"$$$$$$$$$$$$++++++XXXXXXXXXXXXXXXXXXXXXXXXXXXX++++++$$$$$$$$$$$$",
"$$$$$$$$$$$$++++++XXXXXXXXXXXXXXXXXXXXXXXXXXXX++++++$$$$$$$$$$$$",
"$$$$$$$$$$$$$$$$$$$$$$$$$$$$$$$$$$$$$$$$$$$$$$$$$$$$$$$$$$$$$$$$",
"$$$$$$$$$$$$$$$$$$$$$$$$$$$$$$$$$$$$$$$$$$$$$$$$$$$$$$$$$$$$$$$$"
};
