/* XPM */
static char *result[] = {
/* columns rows colors chars-per-pixel */
"32 32 9 1 ",
"  c black",
". c #181425",
"X c #3A4466",
"o c #A22633",
"O c #5A6988",
"+ c #8B9BB4",
"@ c #C0CBDC",
"# c white",
"$ c None",
/* pixels */
"$$$$$$$$$$$$$$$$$$$$$$$$$$$$$$$$",
"$$$$$$$$$$$$$$$$$$$$$$$$$$$$$$$$",
"$$$$$$##$###     ###$$$$$$$$$$$$",
"$$$$$$#$$###O###XX# $$$$$$$$$$$$",
"$$$$$$##$#$#O#O#XX#X $$$$$$$$$$$",
"$$$$$$$$$$$ OOOOXXXX $$$$$$$$$$$",
"$$$$$$$$$$$ ####XXXXX $$$$$$$$$$",
"$$$$$$$$$$ #####@XXXX $$$$$$$$$$",
"$$$$$$$$$$  ###  @XXX $$$$$$$$$$",
"$$$$$$$$$ o#   o# @XX $$$$$$$$$$",
"$$$$$$$$$ oo # oo @XX $$$$$$$$$$",
"$$$$$$$$$$  ###  @X  $$$$$$$$$$$",
"$$$$$$$$$$ #OOO#@XX $$$$$$$$$$$$",
"$$$$$$$$$$ OOOOOXXX $$$$$$$$$$$$",
"$$$$$$$$$$ OOOOOXXX $$$$$$$$$$$$",
"$$$$$$$$$$ OOOOOXX  $$$$$$$$$$$$",
"$$$$$$$$$$ XOOOOX XX $$$$$$$$$$$",
"$$$$$$$$$$$      XXXX $$$$$$$$$$",
"$$$$$$$$$$ X OOOOX XXX $$$$$$$$$",
"$$$$$$$$$$ @ OOOOXX ## $$$$$$$$$",
"$$$$$$$$$$ @ .++.   @# $$$$$$$$$",
"$$$$$$$$$$$  OOOOXX   $$$$$$$$$$",
"$$$$$$$$$$$$ O OOXX $$$$$$$$$$$$",
"$$$$$$$$$$$$ OX OXX $$$$$$$$$$$$",
"$$$$$$       OX  XX       $$$$$$",
"$$$$$ OOO+OOO X O X +OOOOO $$$$$",
"$$$$$ OXXX+X+#  +#  ++XXXO $$$$$",
"$$$$$ OOOOO+#OO+#OO++OOOOO $$$$$",
"$$$$$$                    $$$$$$",
"$$$$$$$$$$$$$$$$$$$$$$$$$$$$$$$$",
"$$$$$$+++XXXXXXXXXXXXXX+++$$$$$$",
"$$$$$$$$$$$$$$$$$$$$$$$$$$$$$$$$"
};
