/* XPM */
static char *result[] = {
/* columns rows colors chars-per-pixel */
"64 64 14 1 ",
"  c black",
". c #181425",
"X c #1C2132",
"o c #4F1219",
"O c #2C3342",
"+ c #3A4466",
"@ c #5D636B",
"# c #7C7C7C",
"$ c #A22633",
"% c #5A6988",
"& c #8B9BB4",
"* c #C0CBDC",
"= c white",
"- c None",
/* pixels */
"------------------------            ----------------------------",
"------------------------            ----------------------------",
"------------------------  OOOOOOOOXXXX    ----------------------",
"------------------------  OOOOOOOOXXXX    ----------------------",
"----------------------  %%%%%%%%++++++++  ----------------------",
"----------------------  %%%%%%%%++++++++  ----------------------",
"------------------------  OOOOOOOOXXXXXXXX  --------------------",
"------------------------  OOOOOOOOXXXXXXXX  --------------------",
"----------------------  ========++++++++++  --------------------",
"----------------------  ========++++++++++  --------------------",
"----------------------  ##########@@XXXXXXXX  ------------------",
"----------------------  ##########@@XXXXXXXX  ------------------",
"--------------------    ======    **++++++  ----..--..----------",
"--------------------    ======    **++++++  ----..--..----------",
"--------------------  oo##      oo##  @@XXXX  ----......--------",
"--------------------  oo##      oo##  @@XXXX  ----......--------",
"------------------  $$$$  ==  $$$$  **++++  ----..--..----------",
"------------------  $$$$  ==  $$$$  **++++  ----..--..----------",
"----------------------    ######    @@XX    --------------------",
"----------------------    ######    @@XX    --------------------",
"--------------------  ==%%%%%%==**++++  --------......----------",
"--------------------  ==%%%%%%==**++++  --------......----------",
"----------------------  OOOOOOOOOOXXXXXX  ----------....--------",
"----------------------  OOOOOOOOOOXXXXXX  ----------....--------",
"--------------------  %%%%%%%%%%++++++  --------......----------",
"--------------------  %%%%%%%%%%++++++  --------......----------",
"----------------------  OOOOOOOOOOXXXX    ----------------------",
"----------------------  OOOOOOOOOOXXXX    ----------------------",
"--------------------  ++%%%%%%%%++  ++++  ----------..----------",
"--------------------  ++%%%%%%%%++  ++++  ----------..----------",
"------------------------            XXXXXXXX  --------..--------",
"------------------------            XXXXXXXX  --------..--------",
"--------------------  ++  %%%%%%%%++  ++++++  --......----------",
"--------------------  ++  %%%%%%%%++  ++++++  --......----------",
"----------------------  @@  OOOOOOOOXXXX  ####  ----------------",
"----------------------  @@  OOOOOOOOXXXX  ####  ----------------",
"--------------------  **  ..&&&&..      **==  --......----------",
"--------------------  **  ..&&&&..      **==  --......----------",
"------------------------    OOOOOOOOXXXX      ----......--------",
"------------------------    OOOOOOOOXXXX      ----......--------",
"------------------------  %%  %%%%++++  ------------..----------",
"------------------------  %%  %%%%++++  ------------..----------",
"--------------------------  OOXX  OOXXXX  ----------------------",
"--------------------------  OOXX  OOXXXX  ----------------------",
"------------              %%++    ++++              ------------",
"------------              %%++    ++++              ------------",
"----------  %%%%%%&&%%%%%%  XX  %%  XX  &&%%%%%%%%%%  ----------",
"----------  %%%%%%&&%%%%%%  XX  %%  XX  &&%%%%%%%%%%  ----------",
"----------  %%++++++&&++&&==    &&==    &&&&++++++%%  ----------",
"----------  %%++++++&&++&&==    &&==    &&&&++++++%%  ----------",
"----------  %%%%%%%%%%&&==%%%%&&==%%%%&&&&%%%%%%%%%%  ----------",
"----------  %%%%%%%%%%&&==%%%%&&==%%%%&&&&%%%%%%%%%%  ----------",
"------------                                        ------------",
"------------                                        ------------",
"----------------------------------------------------------------",
"----------------------------------------------------------------",
"----------------------------------------------------------------",
"----------------------------------------------------------------",
"----------------------------------------------------------------",
"----------------------------------------------------------------",
"--------------------&&&&&&++++++++++++&&&&&&--------------------",
"--------------------&&&&&&++++++++++++&&&&&&--------------------",
"----------------------------------------------------------------",
"----------------------------------------------------------------"
};
