/* XPM */
static char *result[] = {
/* columns rows colors chars-per-pixel */
"32 32 16 1 ",
"  c black",
". c #0C0A12",
"X c #181425",
"o c #1C2132",
"O c #4F1219",
"+ c #2C3342",
"@ c #3A4466",
"# c #444B58",
"$ c #5D636B",
"% c #7C7C7C",
"& c #A22633",
"* c #5A6988",
"= c #8B9BB4",
"- c #C0CBDC",
"; c white",
": c None",
/* pixels */
"::::::::::::::::::::::::::::::::",
"::::::::::::      ::::::::::::::",
"::::::::::: ****@@  ::::::::::::",
"::::::::::: ++++oooo :::::::::::",
"::::::::::: ****@@@@ :::::::::::",
"::::::::::: %%%%ooooo ::::::::::",
":::::::::: ;;;;;-@@@@ ::X:X:::::",
"::::::::::  %%%  $ooo ::XXX:::::",
"::::::::: &;   &; -@@ ::X:X:::::",
"::::::::: OO % OO $oo ::::::::::",
"::::::::::  ;;;  -@  :::XXX:::::",
":::::::::: %+++%$oo :::::XX:::::",
":::::::::: *****@@@ ::::XXX:::::",
":::::::::: +++++ooo ::::::::::::",
"::::::::;;;*;*;*;;; ;;;:::;:::::",
":::::::::;;o;+;+;;;o;;::::;:::::",
"::::::::;;;  ;  ;@;@;;;:;;;:::::",
":::::::::: o ++++o ooo :::::::::",
":::::::X:: - ****@@ ;; :XXX:::::",
":::::::XX: $ .##.   $% :XXX:::::",
":::::::X:::  ****@@   ::::X:::::",
"::::::XXX::: + ++oo ::::::::::::",
":::::::::::: *@ *@@ ::::::::::::",
"::::::       +o  oo       ::::::",
"::::: ***=*** @ * @ =***** :::::",
"::::: *@@@=@=;  =;  ==@@@* :::::",
"::::: *****=;**=;**==***** :::::",
"::::::                    ::::::",
"::::::::::::::::::::::::::::::::",
"::::::::::::::::::::::::::::::::",
"::::::::===@@@@@@@@@@===::::::::",
"::::::::::::::::::::::::::::::::"
};
